<svg xmlns="http://www.w3.org/2000/svg" xmlns:xlink="http://www.w3.org/1999/xlink" xmlns:lucid="lucid" width="1006" height="870"><g transform="translate(-837 -131)" lucid:page-tab-id="0_0"><path d="M0 0h2180v1573.33H0z" fill="#fff"/><path d="M860 508c0-4.42 3.58-8 8-8h164c4.42 0 8 3.58 8 8v124c0 4.42-3.58 8-8 8H868c-4.42 0-8-3.58-8-8z" stroke="#333" fill="#fff"/><use xlink:href="#a" transform="matrix(1,0,0,1,880,500) translate(44.55 73.60000000000001)"/><path d="M1404 490c8.84 0 16 7.16 16 16v128c0 8.84-7.16 16-16 16h-168c-8.84 0-16-7.16-16-16V506c0-8.84 7.16-16 16-16z" stroke="#333" fill="#fff"/><path d="M1220 538h200" stroke="#333" fill="none"/><use xlink:href="#b" transform="matrix(1,0,0,1,1240,490) translate(67.5 27.6)"/><use xlink:href="#c" transform="matrix(1,0,0,1,1240,548) translate(15.75 38.8)"/><use xlink:href="#d" transform="matrix(1,0,0,1,1240,548) translate(84.3 38.8)"/><use xlink:href="#e" transform="matrix(1,0,0,1,1240,548) translate(62.5 60.4)"/><path d="M1041 521.76h162.12" stroke="#333" fill="none"/><path d="M1041 522.26h-.5v-1h.5z" fill="#333"/><path d="M1217.88 521.76l-14.26 4.63v-9.28z" stroke="#333" fill="#333"/><use xlink:href="#f" transform="matrix(1,0,0,1,1079.575,474.5586521712918) translate(0.005000000000002558 14.4)"/><use xlink:href="#g" transform="matrix(1,0,0,1,1079.575,474.5586521712918) translate(40.90500000000001 14.4)"/><use xlink:href="#h" transform="matrix(1,0,0,1,1079.575,474.5586521712918) translate(32.93000000000001 36)"/><path d="M1041 620.58h162.12" stroke="#333" fill="none"/><path d="M1041 621.08h-.5v-1h.5z" fill="#333"/><path d="M1217.88 620.58l-14.26 4.63v-9.26z" stroke="#333" fill="#333"/><use xlink:href="#i" transform="matrix(1,0,0,1,1063.55,624.5765787188849) translate(0.0049999999999954525 14.4)"/><use xlink:href="#j" transform="matrix(1,0,0,1,1063.55,624.5765787188849) translate(72.955 14.4)"/><use xlink:href="#h" transform="matrix(1,0,0,1,1063.55,624.5765787188849) translate(48.955 36)"/><path d="M1404 820c8.84 0 16 7.16 16 16v128c0 8.84-7.16 16-16 16h-168c-8.84 0-16-7.16-16-16V836c0-8.84 7.16-16 16-16z" stroke="#333" fill="#fff"/><path d="M1220 868h200" stroke="#333" fill="none"/><use xlink:href="#k" transform="matrix(1,0,0,1,1240,820) translate(67.5 27.6)"/><use xlink:href="#l" transform="matrix(1,0,0,1,1240,878) translate(19.14999999999999 38.8)"/><use xlink:href="#m" transform="matrix(1,0,0,1,1240,878) translate(83 38.8)"/><use xlink:href="#n" transform="matrix(1,0,0,1,1240,878) translate(125.85000000000001 38.8)"/><use xlink:href="#o" transform="matrix(1,0,0,1,1240,878) translate(55.55 60.4)"/><path d="M1320.5 803.12h-1V756.6h1zm0-89.72h-1V651h1zM1320.5 651h-1v-.5h1zM1320 817.88l-4.64-14.26h9.28z" fill="#333"/><path d="M1320 819.5l-5.32-16.38h10.64zm-3.95-15.38l3.95 12.14 3.95-12.14z" fill="#333"/><use xlink:href="#p" transform="matrix(1,0,0,1,1261.575,713.4) translate(0.005000000000002558 14.4)"/><use xlink:href="#j" transform="matrix(1,0,0,1,1261.575,713.4) translate(56.90500000000001 14.4)"/><use xlink:href="#h" transform="matrix(1,0,0,1,1261.575,713.4) translate(40.93000000000001 36)"/><path d="M1219 900h-186.2c-6.64 0-12-5.37-12-12V656.88" stroke="#333" fill="none"/><path d="M1219.5 900.5h-.5v-1h.5z" fill="#333"/><path d="M1020.8 642.12l4.62 14.26h-9.27z" stroke="#333" fill="#333"/><use xlink:href="#q" transform="matrix(1,0,0,1,1028.7891812366372,852.8000000000001) translate(19.055000000000003 14.4)"/><use xlink:href="#r" transform="matrix(1,0,0,1,1028.7891812366372,852.8000000000001) translate(0.005000000000002558 36)"/><use xlink:href="#s" transform="matrix(1,0,0,1,1028.7891812366372,852.8000000000001) translate(5.005000000000003 36)"/><path d="M1600 528c0-4.42 3.58-8 8-8h184c4.42 0 8 3.58 8 8v84c0 4.42-3.58 8-8 8h-184c-4.42 0-8-3.58-8-8z" fill="#fff"/><path d="M1600 520h200m0 100h-200" stroke="#333" fill="#fff"/><use xlink:href="#t" transform="matrix(1,0,0,1,1620,520) translate(44.525 53.6)"/><path d="M1421 570h162.62" stroke="#333" fill="none"/><path d="M1421 570.5h-.5v-1h.5z" fill="#333"/><path d="M1598.38 570l-14.26 4.64v-9.28z" stroke="#333" fill="#333"/><use xlink:href="#u" transform="matrix(1,0,0,1,1458.5,522.8) translate(0.005000000000002558 14.4)"/><use xlink:href="#j" transform="matrix(1,0,0,1,1458.5,522.8) translate(43.555 14.4)"/><use xlink:href="#r" transform="matrix(1,0,0,1,1458.5,522.8) translate(31.755000000000003 36)"/><use xlink:href="#e" transform="matrix(1,0,0,1,1458.5,522.8) translate(36.755 36)"/><path d="M1404 160c8.84 0 16 7.16 16 16v128c0 8.84-7.16 16-16 16h-168c-8.84 0-16-7.16-16-16V176c0-8.84 7.16-16 16-16z" stroke="#333" fill="#fff"/><path d="M1220 208h200" stroke="#333" fill="none"/><use xlink:href="#v" transform="matrix(1,0,0,1,1240,160) translate(67.5 27.6)"/><use xlink:href="#l" transform="matrix(1,0,0,1,1240,218) translate(15.574999999999989 38.8)"/><use xlink:href="#w" transform="matrix(1,0,0,1,1240,218) translate(79.425 38.8)"/><use xlink:href="#x" transform="matrix(1,0,0,1,1240,218) translate(6.574999999999989 60.4)"/><use xlink:href="#y" transform="matrix(1,0,0,1,1240,218) translate(84.52499999999999 60.4)"/><use xlink:href="#o" transform="matrix(1,0,0,1,1240,218) translate(104.52499999999999 60.4)"/><path d="M1781.2 519h-1V201.45h1zm-344.32-338.65v-1h284.65v1zM1781.2 519.5h-1v-.5h1zM1436.38 184.48l-14.26-4.63 14.26-4.64z" fill="#333"/><path d="M1436.88 185.17l-16.38-5.32 16.38-5.32zm-13.14-5.32l12.14 3.95v-7.9z" fill="#333"/><use xlink:href="#z" transform="matrix(1,0,0,1,1721.5252050355043,158.24862631661952) translate(3.930000000000007 14.4)"/><use xlink:href="#A" transform="matrix(1,0,0,1,1721.5252050355043,158.24862631661952) translate(43.88000000000001 14.4)"/><use xlink:href="#B" transform="matrix(1,0,0,1,1721.5252050355043,158.24862631661952) translate(0.005000000000002558 36)"/><path d="M1700.5 519h-1V261.6h1zm-263.62-278.5v-1h210.64v1zM1700.5 519.5h-1v-.5h1zM1436.38 244.64l-14.26-4.64 14.26-4.64z" fill="#333"/><path d="M1436.88 245.32L1420.5 240l16.38-5.32zm-13.14-5.32l12.14 3.95v-7.9z" fill="#333"/><g><use xlink:href="#z" transform="matrix(1,0,0,1,1647.525,218.3999999999999) translate(0.005000000000002558 14.4)"/><use xlink:href="#C" transform="matrix(1,0,0,1,1647.525,218.3999999999999) translate(39.955000000000005 14.4)"/><use xlink:href="#B" transform="matrix(1,0,0,1,1647.525,218.3999999999999) translate(3.5799999999999983 36)"/></g><path d="M1620.13 519h-1V331h1zm-183.25-220.07v-1h133.3v1zM1620.13 519.5h-1v-.5h1zM1436.38 303.07l-14.26-4.64 14.26-4.64z" fill="#333"/><path d="M1436.88 303.75l-16.38-5.32 16.38-5.32zm-13.14-5.32l12.14 3.95v-7.9z" fill="#333"/><g><use xlink:href="#z" transform="matrix(1,0,0,1,1570.1758161150515,287.80216102933986) translate(0.005000000000002558 14.4)"/><use xlink:href="#D" transform="matrix(1,0,0,1,1570.1758161150515,287.80216102933986) translate(39.955000000000005 14.4)"/><use xlink:href="#B" transform="matrix(1,0,0,1,1570.1758161150515,287.80216102933986) translate(0.5549999999999997 36)"/></g><path d="M950.5 483.12h-1V261.6h1zM1219 240.5H991.48v-1H1219zM1219.5 240.5h-.5v-1h.5zM950 497.88l-4.64-14.26h9.28z" fill="#333"/><path d="M950 499.5l-5.32-16.38h10.64zm-3.95-15.38l3.95 12.14 3.95-12.14z" fill="#333"/><g><use xlink:href="#E" transform="matrix(1,0,0,1,918.525,218.4) translate(2.480000000000004 14.4)"/><use xlink:href="#F" transform="matrix(1,0,0,1,918.525,218.4) translate(0.005000000000002558 36)"/></g><path d="M1089.55 570.5H1041v-1h48.55zm113.57 0h-32.67v-1h32.67zM1041 570.5h-.5v-1h.5zM1217.88 570l-14.26 4.64v-9.28z" fill="#333"/><path d="M1219.5 570l-16.38 5.32v-10.64zm-15.38 3.95l12.14-3.95-12.14-3.95z" fill="#333"/><g><use xlink:href="#G" transform="matrix(1,0,0,1,1089.55,548.4) translate(0.005000000000002558 14.4)"/><use xlink:href="#H" transform="matrix(1,0,0,1,1089.55,548.4) translate(66.95500000000001 14.4)"/><use xlink:href="#I" transform="matrix(1,0,0,1,1089.55,548.4) translate(5.980000000000004 36)"/><use xlink:href="#J" transform="matrix(1,0,0,1,1089.55,548.4) translate(25.980000000000004 36)"/></g><defs><path fill="#333" d="M205 0l-28-72H64L36 0H1l101-248h38L239 0h-34zm-38-99l-47-123c-12 45-31 82-46 123h93" id="K"/><path fill="#333" d="M85-194c31 0 48 13 60 33l-1-100h32l1 261h-30c-2-10 0-23-3-31C134-8 116 4 85 4 32 4 16-35 15-94c0-66 23-100 70-100zm9 24c-40 0-46 34-46 75 0 40 6 74 45 74 42 0 51-32 51-76 0-42-9-74-50-73" id="L"/><path fill="#333" d="M210-169c-67 3-38 105-44 169h-31v-121c0-29-5-50-35-48C34-165 62-65 56 0H25l-1-190h30c1 10-1 24 2 32 10-44 99-50 107 0 11-21 27-35 58-36 85-2 47 119 55 194h-31v-121c0-29-5-49-35-48" id="M"/><path fill="#333" d="M24-231v-30h32v30H24zM24 0v-190h32V0H24" id="N"/><path fill="#333" d="M117-194c89-4 53 116 60 194h-32v-121c0-31-8-49-39-48C34-167 62-67 57 0H25l-1-190h30c1 10-1 24 2 32 11-22 29-35 61-36" id="O"/><g id="a"><use transform="matrix(0.05,0,0,0.05,0,0)" xlink:href="#K"/><use transform="matrix(0.05,0,0,0.05,12,0)" xlink:href="#L"/><use transform="matrix(0.05,0,0,0.05,22,0)" xlink:href="#M"/><use transform="matrix(0.05,0,0,0.05,36.95,0)" xlink:href="#N"/><use transform="matrix(0.05,0,0,0.05,40.900000000000006,0)" xlink:href="#O"/></g><path fill="#333" d="M27 0v-27h64v-190l-56 39v-29l58-41h29v221h61V0H27" id="P"/><path fill="#333" d="M33 0v-38h34V0H33" id="Q"/><path fill="#333" d="M101-251c68 0 85 55 85 127S166 4 100 4C33 4 14-52 14-124c0-73 17-127 87-127zm-1 229c47 0 54-49 54-102s-4-102-53-102c-51 0-55 48-55 102 0 53 5 102 54 102" id="R"/><g id="b"><use transform="matrix(0.05,0,0,0.05,0,0)" xlink:href="#P"/><use transform="matrix(0.05,0,0,0.05,10,0)" xlink:href="#Q"/><use transform="matrix(0.05,0,0,0.05,15,0)" xlink:href="#R"/></g><path fill="#333" d="M137 0h-34L2-248h35l83 218 83-218h36" id="S"/><path fill="#333" d="M141-36C126-15 110 5 73 4 37 3 15-17 15-53c-1-64 63-63 125-63 3-35-9-54-41-54-24 1-41 7-42 31l-33-3c5-37 33-52 76-52 45 0 72 20 72 64v82c-1 20 7 32 28 27v20c-31 9-61-2-59-35zM48-53c0 20 12 33 32 33 41-3 63-29 60-74-43 2-92-5-92 41" id="T"/><path fill="#333" d="M24 0v-261h32V0H24" id="U"/><path fill="#333" d="M59-47c-2 24 18 29 38 22v24C64 9 27 4 27-40v-127H5v-23h24l9-43h21v43h35v23H59v120" id="V"/><path fill="#333" d="M100-194c63 0 86 42 84 106H49c0 40 14 67 53 68 26 1 43-12 49-29l28 8c-11 28-37 45-77 45C44 4 14-33 15-96c1-61 26-98 85-98zm52 81c6-60-76-77-97-28-3 7-6 17-6 28h103" id="W"/><g id="c"><use transform="matrix(0.05,0,0,0.05,0,0)" xlink:href="#S"/><use transform="matrix(0.05,0,0,0.05,10.65,0)" xlink:href="#T"/><use transform="matrix(0.05,0,0,0.05,20.65,0)" xlink:href="#U"/><use transform="matrix(0.05,0,0,0.05,24.599999999999998,0)" xlink:href="#N"/><use transform="matrix(0.05,0,0,0.05,28.549999999999997,0)" xlink:href="#L"/><use transform="matrix(0.05,0,0,0.05,38.55,0)" xlink:href="#T"/><use transform="matrix(0.05,0,0,0.05,48.55,0)" xlink:href="#V"/><use transform="matrix(0.05,0,0,0.05,53.54999999999999,0)" xlink:href="#W"/></g><path fill="#333" d="M115-194c55 1 70 41 70 98S169 2 115 4C84 4 66-9 55-30l1 105H24l-1-265h31l2 30c10-21 28-34 59-34zm-8 174c40 0 45-34 45-75s-6-73-45-74c-42 0-51 32-51 76 0 43 10 73 51 73" id="X"/><path fill="#333" d="M114-163C36-179 61-72 57 0H25l-1-190h30c1 12-1 29 2 39 6-27 23-49 58-41v29" id="Y"/><path fill="#333" d="M100-194c62-1 85 37 85 99 1 63-27 99-86 99S16-35 15-95c0-66 28-99 85-99zM99-20c44 1 53-31 53-75 0-43-8-75-51-75s-53 32-53 75 10 74 51 75" id="Z"/><path fill="#333" d="M84 4C-5 8 30-112 23-190h32v120c0 31 7 50 39 49 72-2 45-101 50-169h31l1 190h-30c-1-10 1-25-2-33-11 22-28 36-60 37" id="aa"/><path fill="#333" d="M96-169c-40 0-48 33-48 73s9 75 48 75c24 0 41-14 43-38l32 2c-6 37-31 61-74 61-59 0-76-41-82-99-10-93 101-131 147-64 4 7 5 14 7 22l-32 3c-4-21-16-35-41-35" id="ab"/><g id="d"><use transform="matrix(0.05,0,0,0.05,0,0)" xlink:href="#X"/><use transform="matrix(0.05,0,0,0.05,10,0)" xlink:href="#Y"/><use transform="matrix(0.05,0,0,0.05,15.949999999999998,0)" xlink:href="#Z"/><use transform="matrix(0.05,0,0,0.05,25.950000000000003,0)" xlink:href="#L"/><use transform="matrix(0.05,0,0,0.05,35.95,0)" xlink:href="#aa"/><use transform="matrix(0.05,0,0,0.05,45.95,0)" xlink:href="#ab"/><use transform="matrix(0.05,0,0,0.05,54.95,0)" xlink:href="#V"/></g><g id="e"><use transform="matrix(0.05,0,0,0.05,0,0)" xlink:href="#L"/><use transform="matrix(0.05,0,0,0.05,10,0)" xlink:href="#T"/><use transform="matrix(0.05,0,0,0.05,20,0)" xlink:href="#V"/><use transform="matrix(0.05,0,0,0.05,25,0)" xlink:href="#T"/></g><path fill="#333" d="M190 0L58-211 59 0H30v-248h39L202-35l-2-213h31V0h-41" id="ac"/><path fill="#333" d="M206 0h-36l-40-164L89 0H53L-1-190h32L70-26l43-164h34l41 164 42-164h31" id="ad"/><g id="f"><use transform="matrix(0.05,0,0,0.05,0,0)" xlink:href="#ac"/><use transform="matrix(0.05,0,0,0.05,12.950000000000001,0)" xlink:href="#W"/><use transform="matrix(0.05,0,0,0.05,22.950000000000003,0)" xlink:href="#ad"/></g><g id="g"><use transform="matrix(0.05,0,0,0.05,0,0)" xlink:href="#X"/><use transform="matrix(0.05,0,0,0.05,10,0)" xlink:href="#Y"/><use transform="matrix(0.05,0,0,0.05,15.949999999999998,0)" xlink:href="#Z"/><use transform="matrix(0.05,0,0,0.05,25.950000000000003,0)" xlink:href="#L"/><use transform="matrix(0.05,0,0,0.05,35.95,0)" xlink:href="#aa"/><use transform="matrix(0.05,0,0,0.05,45.95,0)" xlink:href="#ab"/><use transform="matrix(0.05,0,0,0.05,54.95,0)" xlink:href="#V"/></g><g id="h"><use transform="matrix(0.05,0,0,0.05,0,0)" xlink:href="#L"/><use transform="matrix(0.05,0,0,0.05,10,0)" xlink:href="#T"/><use transform="matrix(0.05,0,0,0.05,20,0)" xlink:href="#V"/><use transform="matrix(0.05,0,0,0.05,25,0)" xlink:href="#T"/></g><path fill="#333" d="M232-93c-1 65-40 97-104 97C67 4 28-28 28-90v-158h33c8 89-33 224 67 224 102 0 64-133 71-224h33v155" id="ae"/><g id="i"><use transform="matrix(0.05,0,0,0.05,0,0)" xlink:href="#ae"/><use transform="matrix(0.05,0,0,0.05,12.950000000000001,0)" xlink:href="#X"/><use transform="matrix(0.05,0,0,0.05,22.950000000000003,0)" xlink:href="#L"/><use transform="matrix(0.05,0,0,0.05,32.95,0)" xlink:href="#T"/><use transform="matrix(0.05,0,0,0.05,42.95,0)" xlink:href="#V"/><use transform="matrix(0.05,0,0,0.05,47.95,0)" xlink:href="#W"/><use transform="matrix(0.05,0,0,0.05,57.95,0)" xlink:href="#L"/></g><g id="j"><use transform="matrix(0.05,0,0,0.05,0,0)" xlink:href="#X"/><use transform="matrix(0.05,0,0,0.05,10,0)" xlink:href="#Y"/><use transform="matrix(0.05,0,0,0.05,15.949999999999998,0)" xlink:href="#Z"/><use transform="matrix(0.05,0,0,0.05,25.950000000000003,0)" xlink:href="#L"/><use transform="matrix(0.05,0,0,0.05,35.95,0)" xlink:href="#aa"/><use transform="matrix(0.05,0,0,0.05,45.95,0)" xlink:href="#ab"/><use transform="matrix(0.05,0,0,0.05,54.95,0)" xlink:href="#V"/></g><path fill="#333" d="M101-251c82-7 93 87 43 132L82-64C71-53 59-42 53-27h129V0H18c2-99 128-94 128-182 0-28-16-43-45-43s-46 15-49 41l-32-3c6-41 34-60 81-64" id="af"/><g id="k"><use transform="matrix(0.05,0,0,0.05,0,0)" xlink:href="#af"/><use transform="matrix(0.05,0,0,0.05,10,0)" xlink:href="#Q"/><use transform="matrix(0.05,0,0,0.05,15,0)" xlink:href="#R"/></g><path fill="#333" d="M30-248c118-7 216 8 213 122C240-48 200 0 122 0H30v-248zM63-27c89 8 146-16 146-99s-60-101-146-95v194" id="ag"/><path fill="#333" d="M135-143c-3-34-86-38-87 0 15 53 115 12 119 90S17 21 10-45l28-5c4 36 97 45 98 0-10-56-113-15-118-90-4-57 82-63 122-42 12 7 21 19 24 35" id="ah"/><path fill="#333" d="M179-190L93 31C79 59 56 82 12 73V49c39 6 53-20 64-50L1-190h34L92-34l54-156h33" id="ai"/><g id="l"><use transform="matrix(0.05,0,0,0.05,0,0)" xlink:href="#ag"/><use transform="matrix(0.05,0,0,0.05,12.950000000000001,0)" xlink:href="#N"/><use transform="matrix(0.05,0,0,0.05,16.900000000000002,0)" xlink:href="#ah"/><use transform="matrix(0.05,0,0,0.05,25.900000000000002,0)" xlink:href="#X"/><use transform="matrix(0.05,0,0,0.05,35.900000000000006,0)" xlink:href="#U"/><use transform="matrix(0.05,0,0,0.05,39.85000000000001,0)" xlink:href="#T"/><use transform="matrix(0.05,0,0,0.05,49.85000000000001,0)" xlink:href="#ai"/></g><g id="m"><use transform="matrix(0.05,0,0,0.05,0,0)" xlink:href="#W"/><use transform="matrix(0.05,0,0,0.05,10,0)" xlink:href="#Y"/><use transform="matrix(0.05,0,0,0.05,15.949999999999998,0)" xlink:href="#Y"/><use transform="matrix(0.05,0,0,0.05,21.9,0)" xlink:href="#Z"/><use transform="matrix(0.05,0,0,0.05,31.899999999999995,0)" xlink:href="#Y"/></g><g id="n"><use transform="matrix(0.05,0,0,0.05,0,0)" xlink:href="#V"/><use transform="matrix(0.05,0,0,0.05,5,0)" xlink:href="#Z"/></g><g id="o"><use transform="matrix(0.05,0,0,0.05,0,0)" xlink:href="#T"/><use transform="matrix(0.05,0,0,0.05,10,0)" xlink:href="#L"/><use transform="matrix(0.05,0,0,0.05,20,0)" xlink:href="#M"/><use transform="matrix(0.05,0,0,0.05,34.95,0)" xlink:href="#N"/><use transform="matrix(0.05,0,0,0.05,38.900000000000006,0)" xlink:href="#O"/></g><path fill="#333" d="M33 0v-248h34V0H33" id="aj"/><path fill="#333" d="M108 0H70L1-190h34L89-25l56-165h34" id="ak"/><g id="p"><use transform="matrix(0.05,0,0,0.05,0,0)" xlink:href="#aj"/><use transform="matrix(0.05,0,0,0.05,5,0)" xlink:href="#O"/><use transform="matrix(0.05,0,0,0.05,15,0)" xlink:href="#ak"/><use transform="matrix(0.05,0,0,0.05,24,0)" xlink:href="#T"/><use transform="matrix(0.05,0,0,0.05,34,0)" xlink:href="#U"/><use transform="matrix(0.05,0,0,0.05,37.95,0)" xlink:href="#N"/><use transform="matrix(0.05,0,0,0.05,41.900000000000006,0)" xlink:href="#L"/></g><path fill="#333" d="M30 0v-248h187v28H63v79h144v27H63v87h162V0H30" id="al"/><g id="q"><use transform="matrix(0.05,0,0,0.05,0,0)" xlink:href="#al"/><use transform="matrix(0.05,0,0,0.05,12,0)" xlink:href="#Y"/><use transform="matrix(0.05,0,0,0.05,17.95,0)" xlink:href="#Y"/><use transform="matrix(0.05,0,0,0.05,23.9,0)" xlink:href="#Z"/><use transform="matrix(0.05,0,0,0.05,33.9,0)" xlink:href="#Y"/></g><path fill="#333" d="M177-190C167-65 218 103 67 71c-23-6-38-20-44-43l32-5c15 47 100 32 89-28v-30C133-14 115 1 83 1 29 1 15-40 15-95c0-56 16-97 71-98 29-1 48 16 59 35 1-10 0-23 2-32h30zM94-22c36 0 50-32 50-73 0-42-14-75-50-75-39 0-46 34-46 75s6 73 46 73" id="am"/><g id="s"><use transform="matrix(0.05,0,0,0.05,0,0)" xlink:href="#M"/><use transform="matrix(0.05,0,0,0.05,14.950000000000001,0)" xlink:href="#W"/><use transform="matrix(0.05,0,0,0.05,24.950000000000003,0)" xlink:href="#ah"/><use transform="matrix(0.05,0,0,0.05,33.95,0)" xlink:href="#ah"/><use transform="matrix(0.05,0,0,0.05,42.95,0)" xlink:href="#T"/><use transform="matrix(0.05,0,0,0.05,52.95,0)" xlink:href="#am"/><use transform="matrix(0.05,0,0,0.05,62.95,0)" xlink:href="#W"/></g><path fill="#333" d="M30-248c87 1 191-15 191 75 0 78-77 80-158 76V0H30v-248zm33 125c57 0 124 11 124-50 0-59-68-47-124-48v98" id="an"/><g id="t"><use transform="matrix(0.05,0,0,0.05,0,0)" xlink:href="#an"/><use transform="matrix(0.05,0,0,0.05,12,0)" xlink:href="#Y"/><use transform="matrix(0.05,0,0,0.05,17.95,0)" xlink:href="#Z"/><use transform="matrix(0.05,0,0,0.05,27.950000000000003,0)" xlink:href="#L"/><use transform="matrix(0.05,0,0,0.05,37.95,0)" xlink:href="#aa"/><use transform="matrix(0.05,0,0,0.05,47.95,0)" xlink:href="#ab"/><use transform="matrix(0.05,0,0,0.05,56.95,0)" xlink:href="#V"/><use transform="matrix(0.05,0,0,0.05,61.95,0)" xlink:href="#ah"/></g><g id="u"><use transform="matrix(0.05,0,0,0.05,0,0)" xlink:href="#S"/><use transform="matrix(0.05,0,0,0.05,10.65,0)" xlink:href="#T"/><use transform="matrix(0.05,0,0,0.05,20.65,0)" xlink:href="#U"/><use transform="matrix(0.05,0,0,0.05,24.599999999999998,0)" xlink:href="#N"/><use transform="matrix(0.05,0,0,0.05,28.549999999999997,0)" xlink:href="#L"/></g><path fill="#333" d="M126-127c33 6 58 20 58 59 0 88-139 92-164 29-3-8-5-16-6-25l32-3c6 27 21 44 54 44 32 0 52-15 52-46 0-38-36-46-79-43v-28c39 1 72-4 72-42 0-27-17-43-46-43-28 0-47 15-49 41l-32-3c6-42 35-63 81-64 48-1 79 21 79 65 0 36-21 52-52 59" id="ao"/><g id="v"><use transform="matrix(0.05,0,0,0.05,0,0)" xlink:href="#ao"/><use transform="matrix(0.05,0,0,0.05,10,0)" xlink:href="#Q"/><use transform="matrix(0.05,0,0,0.05,15,0)" xlink:href="#R"/></g><g id="w"><use transform="matrix(0.05,0,0,0.05,0,0)" xlink:href="#ah"/><use transform="matrix(0.05,0,0,0.05,9,0)" xlink:href="#aa"/><use transform="matrix(0.05,0,0,0.05,19,0)" xlink:href="#ab"/><use transform="matrix(0.05,0,0,0.05,28,0)" xlink:href="#ab"/><use transform="matrix(0.05,0,0,0.05,37,0)" xlink:href="#W"/><use transform="matrix(0.05,0,0,0.05,47,0)" xlink:href="#ah"/><use transform="matrix(0.05,0,0,0.05,56,0)" xlink:href="#ah"/></g><g id="x"><use transform="matrix(0.05,0,0,0.05,0,0)" xlink:href="#M"/><use transform="matrix(0.05,0,0,0.05,14.950000000000001,0)" xlink:href="#W"/><use transform="matrix(0.05,0,0,0.05,24.950000000000003,0)" xlink:href="#ah"/><use transform="matrix(0.05,0,0,0.05,33.95,0)" xlink:href="#ah"/><use transform="matrix(0.05,0,0,0.05,42.95,0)" xlink:href="#T"/><use transform="matrix(0.05,0,0,0.05,52.95,0)" xlink:href="#am"/><use transform="matrix(0.05,0,0,0.05,62.95,0)" xlink:href="#W"/></g><g id="y"><use transform="matrix(0.05,0,0,0.05,0,0)" xlink:href="#V"/><use transform="matrix(0.05,0,0,0.05,5,0)" xlink:href="#Z"/></g><g id="z"><use transform="matrix(0.05,0,0,0.05,0,0)" xlink:href="#aj"/><use transform="matrix(0.05,0,0,0.05,5,0)" xlink:href="#V"/><use transform="matrix(0.05,0,0,0.05,10,0)" xlink:href="#W"/><use transform="matrix(0.05,0,0,0.05,20,0)" xlink:href="#M"/></g><g id="A"><use transform="matrix(0.05,0,0,0.05,0,0)" xlink:href="#T"/><use transform="matrix(0.05,0,0,0.05,10,0)" xlink:href="#L"/><use transform="matrix(0.05,0,0,0.05,20,0)" xlink:href="#L"/><use transform="matrix(0.05,0,0,0.05,30,0)" xlink:href="#W"/><use transform="matrix(0.05,0,0,0.05,40,0)" xlink:href="#L"/></g><path fill="#333" d="M101-234c-31-9-42 10-38 44h38v23H63V0H32v-167H5v-23h27c-7-52 17-82 69-68v24" id="ap"/><g id="B"><use transform="matrix(0.05,0,0,0.05,0,0)" xlink:href="#ab"/><use transform="matrix(0.05,0,0,0.05,9,0)" xlink:href="#Z"/><use transform="matrix(0.05,0,0,0.05,19,0)" xlink:href="#O"/><use transform="matrix(0.05,0,0,0.05,29,0)" xlink:href="#ap"/><use transform="matrix(0.05,0,0,0.05,34,0)" xlink:href="#N"/><use transform="matrix(0.05,0,0,0.05,37.95,0)" xlink:href="#Y"/><use transform="matrix(0.05,0,0,0.05,43.900000000000006,0)" xlink:href="#M"/><use transform="matrix(0.05,0,0,0.05,58.85,0)" xlink:href="#T"/><use transform="matrix(0.05,0,0,0.05,68.85000000000001,0)" xlink:href="#V"/><use transform="matrix(0.05,0,0,0.05,73.85000000000001,0)" xlink:href="#N"/><use transform="matrix(0.05,0,0,0.05,77.80000000000001,0)" xlink:href="#Z"/><use transform="matrix(0.05,0,0,0.05,87.80000000000001,0)" xlink:href="#O"/></g><g id="C"><use transform="matrix(0.05,0,0,0.05,0,0)" xlink:href="#aa"/><use transform="matrix(0.05,0,0,0.05,10,0)" xlink:href="#X"/><use transform="matrix(0.05,0,0,0.05,20,0)" xlink:href="#L"/><use transform="matrix(0.05,0,0,0.05,30,0)" xlink:href="#T"/><use transform="matrix(0.05,0,0,0.05,40,0)" xlink:href="#V"/><use transform="matrix(0.05,0,0,0.05,45,0)" xlink:href="#W"/><use transform="matrix(0.05,0,0,0.05,55,0)" xlink:href="#L"/></g><g id="D"><use transform="matrix(0.05,0,0,0.05,0,0)" xlink:href="#L"/><use transform="matrix(0.05,0,0,0.05,10,0)" xlink:href="#W"/><use transform="matrix(0.05,0,0,0.05,20,0)" xlink:href="#U"/><use transform="matrix(0.05,0,0,0.05,23.95,0)" xlink:href="#W"/><use transform="matrix(0.05,0,0,0.05,33.95,0)" xlink:href="#V"/><use transform="matrix(0.05,0,0,0.05,38.95,0)" xlink:href="#W"/><use transform="matrix(0.05,0,0,0.05,48.95,0)" xlink:href="#L"/></g><path fill="#333" d="M185-189c-5-48-123-54-124 2 14 75 158 14 163 119 3 78-121 87-175 55-17-10-28-26-33-46l33-7c5 56 141 63 141-1 0-78-155-14-162-118-5-82 145-84 179-34 5 7 8 16 11 25" id="aq"/><g id="E"><use transform="matrix(0.05,0,0,0.05,0,0)" xlink:href="#aq"/><use transform="matrix(0.05,0,0,0.05,12,0)" xlink:href="#aa"/><use transform="matrix(0.05,0,0,0.05,22,0)" xlink:href="#ab"/><use transform="matrix(0.05,0,0,0.05,31,0)" xlink:href="#ab"/><use transform="matrix(0.05,0,0,0.05,40,0)" xlink:href="#W"/><use transform="matrix(0.05,0,0,0.05,50,0)" xlink:href="#ah"/><use transform="matrix(0.05,0,0,0.05,59,0)" xlink:href="#ah"/></g><g id="F"><use transform="matrix(0.05,0,0,0.05,0,0)" xlink:href="#M"/><use transform="matrix(0.05,0,0,0.05,14.950000000000001,0)" xlink:href="#W"/><use transform="matrix(0.05,0,0,0.05,24.950000000000003,0)" xlink:href="#ah"/><use transform="matrix(0.05,0,0,0.05,33.95,0)" xlink:href="#ah"/><use transform="matrix(0.05,0,0,0.05,42.95,0)" xlink:href="#T"/><use transform="matrix(0.05,0,0,0.05,52.95,0)" xlink:href="#am"/><use transform="matrix(0.05,0,0,0.05,62.95,0)" xlink:href="#W"/></g><g id="G"><use transform="matrix(0.05,0,0,0.05,0,0)" xlink:href="#an"/><use transform="matrix(0.05,0,0,0.05,12,0)" xlink:href="#Y"/><use transform="matrix(0.05,0,0,0.05,17.95,0)" xlink:href="#Z"/><use transform="matrix(0.05,0,0,0.05,27.950000000000003,0)" xlink:href="#L"/><use transform="matrix(0.05,0,0,0.05,37.95,0)" xlink:href="#aa"/><use transform="matrix(0.05,0,0,0.05,47.95,0)" xlink:href="#ab"/><use transform="matrix(0.05,0,0,0.05,56.95,0)" xlink:href="#V"/></g><g id="H"><use transform="matrix(0.05,0,0,0.05,0,0)" xlink:href="#N"/><use transform="matrix(0.05,0,0,0.05,3.95,0)" xlink:href="#L"/></g><g id="I"><use transform="matrix(0.05,0,0,0.05,0,0)" xlink:href="#V"/><use transform="matrix(0.05,0,0,0.05,5,0)" xlink:href="#Z"/></g><g id="J"><use transform="matrix(0.05,0,0,0.05,0,0)" xlink:href="#L"/><use transform="matrix(0.05,0,0,0.05,10,0)" xlink:href="#W"/><use transform="matrix(0.05,0,0,0.05,20,0)" xlink:href="#U"/><use transform="matrix(0.05,0,0,0.05,23.95,0)" xlink:href="#W"/><use transform="matrix(0.05,0,0,0.05,33.95,0)" xlink:href="#V"/><use transform="matrix(0.05,0,0,0.05,38.95,0)" xlink:href="#W"/></g></defs></g></svg>