<svg xmlns="http://www.w3.org/2000/svg" xmlns:xlink="http://www.w3.org/1999/xlink" xmlns:lucid="lucid" width="2126" height="854"><g transform="translate(-55 -365)" lucid:page-tab-id="0_0"><path d="M0 0h2180v1573.33H0z" fill="#fff"/><path d="M80 708c0-4.42 3.58-8 8-8h164c4.42 0 8 3.58 8 8v124c0 4.42-3.58 8-8 8H88c-4.42 0-8-3.58-8-8z" stroke="#333" fill="#fff"/><use xlink:href="#a" transform="matrix(1,0,0,1,100,700) translate(31.074999999999996 73.60000000000001)"/><path d="M261 770h162.12" stroke="#333" fill="none"/><path d="M261 770.5h-.5v-1h.5z" fill="#333"/><path d="M437.88 770l-14.26 4.64v-9.28z" stroke="#333" fill="#333"/><use xlink:href="#b" transform="matrix(1,0,0,1,312.025,722.8000000000001) translate(0.005000000000002558 14.4)"/><use xlink:href="#c" transform="matrix(1,0,0,1,312.025,722.8000000000001) translate(8.005000000000003 36)"/><path d="M624 690c8.84 0 16 7.16 16 16v128c0 8.84-7.16 16-16 16H456c-8.84 0-16-7.16-16-16V706c0-8.84 7.16-16 16-16z" stroke="#333" fill="#fff"/><path d="M440 738h200" stroke="#333" fill="none"/><use xlink:href="#d" transform="matrix(1,0,0,1,460,690) translate(67.5 27.6)"/><use xlink:href="#e" transform="matrix(1,0,0,1,460,748) translate(8.75 38.8)"/><use xlink:href="#f" transform="matrix(1,0,0,1,460,748) translate(77.3 38.8)"/><use xlink:href="#g" transform="matrix(1,0,0,1,460,748) translate(50.025 60.4)"/><path d="M1004 690c8.84 0 16 7.16 16 16v128c0 8.84-7.16 16-16 16H836c-8.84 0-16-7.16-16-16V706c0-8.84 7.16-16 16-16z" stroke="#333" fill="#fff"/><path d="M820 738h200" stroke="#333" fill="none"/><use xlink:href="#h" transform="matrix(1,0,0,1,840,690) translate(67.5 27.6)"/><use xlink:href="#i" transform="matrix(1,0,0,1,840,748) translate(11.599999999999994 38.8)"/><use xlink:href="#j" transform="matrix(1,0,0,1,840,748) translate(67.55 38.8)"/><use xlink:href="#k" transform="matrix(1,0,0,1,840,748) translate(38.62499999999999 60.4)"/><path d="M641 770h162.12" stroke="#333" fill="none"/><path d="M641 770.5h-.5v-1h.5z" fill="#333"/><path d="M817.88 770l-14.26 4.64v-9.28z" stroke="#333" fill="#333"/><use xlink:href="#l" transform="matrix(1,0,0,1,671.25,722.8000000000001) translate(0.005000000000002558 14.4)"/><use xlink:href="#m" transform="matrix(1,0,0,1,671.25,722.8000000000001) translate(43.555 14.4)"/><use xlink:href="#n" transform="matrix(1,0,0,1,671.25,722.8000000000001) translate(8.780000000000001 36)"/><use xlink:href="#o" transform="matrix(1,0,0,1,671.25,722.8000000000001) translate(73.73 36)"/><path d="M540.5 963.12h-1v-40.3h1zm0-83.5h-1V851h1zM540.5 851h-1v-.5h1zM540 977.88l-4.64-14.26h9.28z" fill="#333"/><path d="M540 979.5l-5.32-16.38h10.64zm-3.95-15.38l3.95 12.14 3.95-12.14z" fill="#333"/><use xlink:href="#p" transform="matrix(1,0,0,1,474.575,879.6233009708737) translate(0.0049999999999954525 14.4)"/><use xlink:href="#m" transform="matrix(1,0,0,1,474.575,879.6233009708737) translate(56.905 14.4)"/><use xlink:href="#n" transform="matrix(1,0,0,1,474.575,879.6233009708737) translate(15.455000000000005 36)"/><use xlink:href="#o" transform="matrix(1,0,0,1,474.575,879.6233009708737) translate(80.405 36)"/><path d="M624 980c8.84 0 16 7.16 16 16v128c0 8.84-7.16 16-16 16H456c-8.84 0-16-7.16-16-16V996c0-8.84 7.16-16 16-16z" stroke="#333" fill="#fff"/><path d="M440 1028h200" stroke="#333" fill="none"/><use xlink:href="#q" transform="matrix(1,0,0,1,460,980) translate(67.5 27.6)"/><use xlink:href="#r" transform="matrix(1,0,0,1,460,1038) translate(19.14999999999999 38.8)"/><use xlink:href="#s" transform="matrix(1,0,0,1,460,1038) translate(83 38.8)"/><use xlink:href="#t" transform="matrix(1,0,0,1,460,1038) translate(125.85000000000001 38.8)"/><use xlink:href="#u" transform="matrix(1,0,0,1,460,1038) translate(62.525 60.4)"/><path d="M170.5 1047.97l.4 3 1.14 2.77 1.83 2.4 2.4 1.82 2.75 1.14 3 .4H439v1H181.97l-3.2-.42-3-1.24-2.6-2-2-2.6-1.25-3-.42-3.2v-77.26h1zm0-98.8h-1v-92.3h1zM439.5 1060.5h-.5v-1h.5zM174.64 856.38h-9.28l4.64-14.26z" fill="#333"/><path d="M175.32 856.88h-10.64L170 840.5zm-9.27-1h7.9L170 843.74z" fill="#333"/><use xlink:href="#v" transform="matrix(1,0,0,1,111.1,949.1805825242719) translate(0.005000000000002558 14.4)"/><use xlink:href="#w" transform="matrix(1,0,0,1,111.1,949.1805825242719) translate(44.855000000000004 14.4)"/><path d="M1200 728c0-4.42 3.58-8 8-8h184c4.42 0 8 3.58 8 8v84c0 4.42-3.58 8-8 8h-184c-4.42 0-8-3.58-8-8z" fill="#fff"/><path d="M1200 720h200m0 100h-200" stroke="#333" fill="#fff"/><use xlink:href="#x" transform="matrix(1,0,0,1,1220,720) translate(44.525 53.6)"/><path d="M1021 770h162.62" stroke="#333" fill="none"/><path d="M1021 770.5h-.5v-1h.5z" fill="#333"/><path d="M1198.38 770l-14.26 4.64v-9.28z" stroke="#333" fill="#333"/><use xlink:href="#y" transform="matrix(1,0,0,1,1045.8450805008943,744.4000000000001) translate(0.005000000000002558 14.4)"/><use xlink:href="#z" transform="matrix(1,0,0,1,1045.8450805008943,744.4000000000001) translate(50.90500000000001 14.4)"/><path d="M1300 821v227c0 6.63-5.37 12-12 12H656.88" stroke="#333" fill="none"/><path d="M1300.5 821h-1v-.5h1z" fill="#333"/><path d="M642.12 1060l14.26-4.64v9.28z" stroke="#333" fill="#333"/><use xlink:href="#A" transform="matrix(1,0,0,1,958.7400368662038,1064.0000000000002) translate(4.005000000000003 14.4)"/><use xlink:href="#B" transform="matrix(1,0,0,1,958.7400368662038,1064.0000000000002) translate(0.005000000000002558 36)"/><path d="M1590 988c0-4.42 3.58-8 8-8h164c4.42 0 8 3.58 8 8v124c0 4.42-3.58 8-8 8h-164c-4.42 0-8-3.58-8-8z" stroke="#333" fill="#fff"/><use xlink:href="#C" transform="matrix(1,0,0,1,1610,980) translate(29.549999999999997 73.60000000000001)"/><use xlink:href="#D" transform="matrix(1,0,0,1,1610,980) translate(81.44999999999999 73.60000000000001)"/><path d="M1764 690c8.84 0 16 7.16 16 16v128c0 8.84-7.16 16-16 16h-168c-8.84 0-16-7.16-16-16V706c0-8.84 7.16-16 16-16z" stroke="#333" fill="#fff"/><path d="M1580 738h200" stroke="#333" fill="none"/><use xlink:href="#E" transform="matrix(1,0,0,1,1600,690) translate(67.5 27.6)"/><use xlink:href="#F" transform="matrix(1,0,0,1,1600,748) translate(10.25 49.6)"/><use xlink:href="#G" transform="matrix(1,0,0,1,1600,748) translate(78.8 49.6)"/><path d="M1448.33 770.5h-47.83v-1h47.83zm114.8 0h-31.96v-1h31.95zM1400.5 770.5h-.5v-1h.5zM1577.88 770l-14.26 4.64v-9.28z" fill="#333"/><path d="M1579.5 770l-16.38 5.32v-10.64zm-15.38 3.95l12.14-3.95-12.14-3.95z" fill="#333"/><use xlink:href="#H" transform="matrix(1,0,0,1,1448.325,748.4) translate(0.005000000000002558 14.4)"/><use xlink:href="#I" transform="matrix(1,0,0,1,1448.325,748.4) translate(6.005000000000003 36)"/><path d="M1680.5 963.12h-1V913.4h1zm0-71.33h-1V851h1zM1680.5 851h-1v-.5h1zM1680 977.88l-4.64-14.26h9.28z" fill="#333"/><path d="M1680 979.5l-5.32-16.38h10.64zm-3.95-15.38l3.95 12.14 3.95-12.14z" fill="#333"/><use xlink:href="#J" transform="matrix(1,0,0,1,1616.075,891.7906040268457) translate(0.005000000000002558 14.4)"/><use xlink:href="#z" transform="matrix(1,0,0,1,1616.075,891.7906040268457) translate(75.95500000000001 14.4)"/><path d="M540.5 1168.47l.4 3 1.14 2.77 1.83 2.4 2.4 1.82 2.75 1.14 3 .4h554.9v1H551.96l-3.2-.42-3-1.24-2.6-2-2-2.6-1.25-3-.42-3.2v-11.66h1zm1140 .06l-.42 3.2-1.24 3-2 2.6-2.6 2-3 1.25-3.2.42h-380.28v-1h380.2l3.02-.4 2.76-1.14 2.4-1.83 1.82-2.4 1.14-2.75.4-3V1121h1zM1680.5 1121h-1v-.5h1zM544.64 1156.38h-9.28l4.64-14.26z" fill="#333"/><path d="M545.32 1156.88h-10.64l5.32-16.38zm-9.27-1h7.9l-3.95-12.14z" fill="#333"/><use xlink:href="#K" transform="matrix(1,0,0,1,1106.9083333333333,1169.7) translate(0.0049999999999954525 14.4)"/><use xlink:href="#L" transform="matrix(1,0,0,1,1106.9083333333333,1169.7) translate(111.905 14.4)"/><path d="M2144 690c8.84 0 16 7.16 16 16v128c0 8.84-7.16 16-16 16h-168c-8.84 0-16-7.16-16-16V706c0-8.84 7.16-16 16-16z" stroke="#333" fill="#fff"/><path d="M1960 738h200" stroke="#333" fill="none"/><use xlink:href="#M" transform="matrix(1,0,0,1,1980,690) translate(67.5 27.6)"/><use xlink:href="#N" transform="matrix(1,0,0,1,1980,748) translate(18.549999999999997 38.8)"/><use xlink:href="#O" transform="matrix(1,0,0,1,1980,748) translate(81.5 38.8)"/><use xlink:href="#P" transform="matrix(1,0,0,1,1980,748) translate(60.025 60.4)"/><path d="M1771 1050h277c6.63 0 12-5.37 12-12V866.88" stroke="#333" fill="none"/><path d="M1771 1050.5h-.5v-1h.5z" fill="#333"/><path d="M2060 852.12l4.64 14.26h-9.28z" stroke="#333" fill="#333"/><g><use xlink:href="#Q" transform="matrix(1,0,0,1,1917.5917787127137,1054.0000000000002) translate(0.005000000000002558 14.4)"/><use xlink:href="#R" transform="matrix(1,0,0,1,1917.5917787127137,1054.0000000000002) translate(9.005000000000003 36)"/></g><path d="M2060 689V582c0-6.63-5.37-12-12-12h-648c-6.63 0-12 5.37-12 12v121.12" stroke="#333" fill="none"/><path d="M2060.5 689.5h-1v-.5h1z" fill="#333"/><path d="M1388 717.88l-4.64-14.26h9.28z" stroke="#333" fill="#333"/><g><use xlink:href="#y" transform="matrix(1,0,0,1,1657.6,544.4) translate(0.005000000000002558 14.4)"/><use xlink:href="#z" transform="matrix(1,0,0,1,1657.6,544.4) translate(50.90500000000001 14.4)"/></g><path d="M624 400c8.84 0 16 7.16 16 16v128c0 8.84-7.16 16-16 16H456c-8.84 0-16-7.16-16-16V416c0-8.84 7.16-16 16-16z" stroke="#333" fill="#fff"/><path d="M440 448h200" stroke="#333" fill="none"/><g><use xlink:href="#S" transform="matrix(1,0,0,1,460,400) translate(67.5 27.6)"/></g><g><use xlink:href="#r" transform="matrix(1,0,0,1,460,458) translate(15.574999999999989 38.8)"/><use xlink:href="#T" transform="matrix(1,0,0,1,460,458) translate(79.425 38.8)"/><use xlink:href="#U" transform="matrix(1,0,0,1,460,458) translate(13.549999999999997 60.4)"/><use xlink:href="#V" transform="matrix(1,0,0,1,460,458) translate(91.5 60.4)"/><use xlink:href="#u" transform="matrix(1,0,0,1,460,458) translate(111.5 60.4)"/></g><path d="M1240 719V492c0-6.63-5.37-12-12-12H656.88" stroke="#333" fill="none"/><path d="M1240.5 719.5h-1v-.5h1z" fill="#333"/><path d="M642.12 480l14.26-4.64v9.28z" stroke="#333" fill="#333"/><g><use xlink:href="#W" transform="matrix(1,0,0,1,780.0594930888033,432.8) translate(0.005000000000002558 14.4)"/><use xlink:href="#X" transform="matrix(1,0,0,1,780.0594930888033,432.8) translate(47.955000000000005 14.4)"/><use xlink:href="#Y" transform="matrix(1,0,0,1,780.0594930888033,432.8) translate(12.005000000000003 36)"/><use xlink:href="#Z" transform="matrix(1,0,0,1,780.0594930888033,432.8) translate(17.005000000000003 36)"/></g><path d="M170.5 683.12h-1V534.56h1zM439 480.5H182.03l-3 .4-2.77 1.14-2.4 1.83-1.82 2.4-1.14 2.75-.3 2.34h-1.02l.34-2.6 1.24-3 2-2.6 2.6-2 3-1.24 3.2-.42H439zM439.5 480.5h-.5v-1h.5zM170 697.88l-4.64-14.26h9.28z" fill="#333"/><path d="M170 699.5l-5.32-16.38h10.64zm-3.95-15.38l3.95 12.14 3.95-12.14z" fill="#333"/><g><use xlink:href="#aa" transform="matrix(1,0,0,1,133.52499999999998,491.3626719056974) translate(2.480000000000004 14.4)"/><use xlink:href="#ab" transform="matrix(1,0,0,1,133.52499999999998,491.3626719056974) translate(0.005000000000002558 36)"/></g><defs><path fill="#333" d="M212-179c-10-28-35-45-73-45-59 0-87 40-87 99 0 60 29 101 89 101 43 0 62-24 78-52l27 14C228-24 195 4 139 4 59 4 22-46 18-125c-6-104 99-153 187-111 19 9 31 26 39 46" id="ac"/><path fill="#333" d="M84 4C-5 8 30-112 23-190h32v120c0 31 7 50 39 49 72-2 45-101 50-169h31l1 190h-30c-1-10 1-25-2-33-11 22-28 36-60 37" id="ad"/><path fill="#333" d="M135-143c-3-34-86-38-87 0 15 53 115 12 119 90S17 21 10-45l28-5c4 36 97 45 98 0-10-56-113-15-118-90-4-57 82-63 122-42 12 7 21 19 24 35" id="ae"/><path fill="#333" d="M59-47c-2 24 18 29 38 22v24C64 9 27 4 27-40v-127H5v-23h24l9-43h21v43h35v23H59v120" id="af"/><path fill="#333" d="M100-194c62-1 85 37 85 99 1 63-27 99-86 99S16-35 15-95c0-66 28-99 85-99zM99-20c44 1 53-31 53-75 0-43-8-75-51-75s-53 32-53 75 10 74 51 75" id="ag"/><path fill="#333" d="M210-169c-67 3-38 105-44 169h-31v-121c0-29-5-50-35-48C34-165 62-65 56 0H25l-1-190h30c1 10-1 24 2 32 10-44 99-50 107 0 11-21 27-35 58-36 85-2 47 119 55 194h-31v-121c0-29-5-49-35-48" id="ah"/><path fill="#333" d="M100-194c63 0 86 42 84 106H49c0 40 14 67 53 68 26 1 43-12 49-29l28 8c-11 28-37 45-77 45C44 4 14-33 15-96c1-61 26-98 85-98zm52 81c6-60-76-77-97-28-3 7-6 17-6 28h103" id="ai"/><path fill="#333" d="M114-163C36-179 61-72 57 0H25l-1-190h30c1 12-1 29 2 39 6-27 23-49 58-41v29" id="aj"/><g id="a"><use transform="matrix(0.05,0,0,0.05,0,0)" xlink:href="#ac"/><use transform="matrix(0.05,0,0,0.05,12.950000000000001,0)" xlink:href="#ad"/><use transform="matrix(0.05,0,0,0.05,22.950000000000003,0)" xlink:href="#ae"/><use transform="matrix(0.05,0,0,0.05,31.950000000000003,0)" xlink:href="#af"/><use transform="matrix(0.05,0,0,0.05,36.95,0)" xlink:href="#ag"/><use transform="matrix(0.05,0,0,0.05,46.95,0)" xlink:href="#ah"/><use transform="matrix(0.05,0,0,0.05,61.900000000000006,0)" xlink:href="#ai"/><use transform="matrix(0.05,0,0,0.05,71.9,0)" xlink:href="#aj"/></g><path fill="#333" d="M30-248c87 1 191-15 191 75 0 78-77 80-158 76V0H30v-248zm33 125c57 0 124 11 124-50 0-59-68-47-124-48v98" id="ak"/><path fill="#333" d="M96-169c-40 0-48 33-48 73s9 75 48 75c24 0 41-14 43-38l32 2c-6 37-31 61-74 61-59 0-76-41-82-99-10-93 101-131 147-64 4 7 5 14 7 22l-32 3c-4-21-16-35-41-35" id="al"/><path fill="#333" d="M106-169C34-169 62-67 57 0H25v-261h32l-1 103c12-21 28-36 61-36 89 0 53 116 60 194h-32v-121c2-32-8-49-39-48" id="am"/><path fill="#333" d="M141-36C126-15 110 5 73 4 37 3 15-17 15-53c-1-64 63-63 125-63 3-35-9-54-41-54-24 1-41 7-42 31l-33-3c5-37 33-52 76-52 45 0 72 20 72 64v82c-1 20 7 32 28 27v20c-31 9-61-2-59-35zM48-53c0 20 12 33 32 33 41-3 63-29 60-74-43 2-92-5-92 41" id="an"/><g id="b"><use transform="matrix(0.05,0,0,0.05,0,0)" xlink:href="#ak"/><use transform="matrix(0.05,0,0,0.05,12,0)" xlink:href="#ad"/><use transform="matrix(0.05,0,0,0.05,22,0)" xlink:href="#aj"/><use transform="matrix(0.05,0,0,0.05,27.950000000000003,0)" xlink:href="#al"/><use transform="matrix(0.05,0,0,0.05,36.95,0)" xlink:href="#am"/><use transform="matrix(0.05,0,0,0.05,46.95,0)" xlink:href="#an"/><use transform="matrix(0.05,0,0,0.05,56.95,0)" xlink:href="#ae"/><use transform="matrix(0.05,0,0,0.05,65.95,0)" xlink:href="#ai"/></g><path fill="#333" d="M145-31C134-9 116 4 85 4 32 4 16-35 15-94c0-59 17-99 70-100 32-1 48 14 60 33 0-11-1-24 2-32h30l-1 268h-32zM93-21c41 0 51-33 51-76s-8-73-50-73c-40 0-46 35-46 75s5 74 45 74" id="ao"/><g id="c"><use transform="matrix(0.05,0,0,0.05,0,0)" xlink:href="#aj"/><use transform="matrix(0.05,0,0,0.05,5.95,0)" xlink:href="#ai"/><use transform="matrix(0.05,0,0,0.05,15.949999999999998,0)" xlink:href="#ao"/><use transform="matrix(0.05,0,0,0.05,25.950000000000003,0)" xlink:href="#ad"/><use transform="matrix(0.05,0,0,0.05,35.95,0)" xlink:href="#ai"/><use transform="matrix(0.05,0,0,0.05,45.95,0)" xlink:href="#ae"/><use transform="matrix(0.05,0,0,0.05,54.95,0)" xlink:href="#af"/></g><path fill="#333" d="M27 0v-27h64v-190l-56 39v-29l58-41h29v221h61V0H27" id="ap"/><path fill="#333" d="M33 0v-38h34V0H33" id="aq"/><path fill="#333" d="M101-251c68 0 85 55 85 127S166 4 100 4C33 4 14-52 14-124c0-73 17-127 87-127zm-1 229c47 0 54-49 54-102s-4-102-53-102c-51 0-55 48-55 102 0 53 5 102 54 102" id="ar"/><g id="d"><use transform="matrix(0.05,0,0,0.05,0,0)" xlink:href="#ap"/><use transform="matrix(0.05,0,0,0.05,10,0)" xlink:href="#aq"/><use transform="matrix(0.05,0,0,0.05,15,0)" xlink:href="#ar"/></g><path fill="#333" d="M137 0h-34L2-248h35l83 218 83-218h36" id="as"/><path fill="#333" d="M24 0v-261h32V0H24" id="at"/><path fill="#333" d="M24-231v-30h32v30H24zM24 0v-190h32V0H24" id="au"/><path fill="#333" d="M85-194c31 0 48 13 60 33l-1-100h32l1 261h-30c-2-10 0-23-3-31C134-8 116 4 85 4 32 4 16-35 15-94c0-66 23-100 70-100zm9 24c-40 0-46 34-46 75 0 40 6 74 45 74 42 0 51-32 51-76 0-42-9-74-50-73" id="av"/><g id="e"><use transform="matrix(0.05,0,0,0.05,0,0)" xlink:href="#as"/><use transform="matrix(0.05,0,0,0.05,10.65,0)" xlink:href="#an"/><use transform="matrix(0.05,0,0,0.05,20.65,0)" xlink:href="#at"/><use transform="matrix(0.05,0,0,0.05,24.599999999999998,0)" xlink:href="#au"/><use transform="matrix(0.05,0,0,0.05,28.549999999999997,0)" xlink:href="#av"/><use transform="matrix(0.05,0,0,0.05,38.55,0)" xlink:href="#an"/><use transform="matrix(0.05,0,0,0.05,48.55,0)" xlink:href="#af"/><use transform="matrix(0.05,0,0,0.05,53.54999999999999,0)" xlink:href="#ai"/></g><path fill="#333" d="M115-194c55 1 70 41 70 98S169 2 115 4C84 4 66-9 55-30l1 105H24l-1-265h31l2 30c10-21 28-34 59-34zm-8 174c40 0 45-34 45-75s-6-73-45-74c-42 0-51 32-51 76 0 43 10 73 51 73" id="aw"/><g id="f"><use transform="matrix(0.05,0,0,0.05,0,0)" xlink:href="#aw"/><use transform="matrix(0.05,0,0,0.05,10,0)" xlink:href="#ad"/><use transform="matrix(0.05,0,0,0.05,20,0)" xlink:href="#aj"/><use transform="matrix(0.05,0,0,0.05,25.950000000000003,0)" xlink:href="#al"/><use transform="matrix(0.05,0,0,0.05,34.95,0)" xlink:href="#am"/><use transform="matrix(0.05,0,0,0.05,44.95,0)" xlink:href="#an"/><use transform="matrix(0.05,0,0,0.05,54.95,0)" xlink:href="#ae"/><use transform="matrix(0.05,0,0,0.05,63.95,0)" xlink:href="#ai"/></g><g id="g"><use transform="matrix(0.05,0,0,0.05,0,0)" xlink:href="#aj"/><use transform="matrix(0.05,0,0,0.05,5.95,0)" xlink:href="#ai"/><use transform="matrix(0.05,0,0,0.05,15.949999999999998,0)" xlink:href="#ao"/><use transform="matrix(0.05,0,0,0.05,25.950000000000003,0)" xlink:href="#ad"/><use transform="matrix(0.05,0,0,0.05,35.95,0)" xlink:href="#ai"/><use transform="matrix(0.05,0,0,0.05,45.95,0)" xlink:href="#ae"/><use transform="matrix(0.05,0,0,0.05,54.95,0)" xlink:href="#af"/></g><g id="h"><use transform="matrix(0.05,0,0,0.05,0,0)" xlink:href="#ap"/><use transform="matrix(0.05,0,0,0.05,10,0)" xlink:href="#aq"/><use transform="matrix(0.05,0,0,0.05,15,0)" xlink:href="#ap"/></g><path fill="#333" d="M143 0L79-87 56-68V0H24v-261h32v163l83-92h37l-77 82L181 0h-38" id="ax"/><g id="i"><use transform="matrix(0.05,0,0,0.05,0,0)" xlink:href="#ac"/><use transform="matrix(0.05,0,0,0.05,12.950000000000001,0)" xlink:href="#am"/><use transform="matrix(0.05,0,0,0.05,22.950000000000003,0)" xlink:href="#ai"/><use transform="matrix(0.05,0,0,0.05,32.95,0)" xlink:href="#al"/><use transform="matrix(0.05,0,0,0.05,41.95,0)" xlink:href="#ax"/></g><path fill="#333" d="M87 75C49 33 22-17 22-94c0-76 28-126 65-167h31c-38 41-64 92-64 168S80 34 118 75H87" id="ay"/><path fill="#333" d="M33-261c38 41 65 92 65 168S71 34 33 75H2C39 34 66-17 66-93S39-220 2-261h31" id="az"/><g id="j"><use transform="matrix(0.05,0,0,0.05,0,0)" xlink:href="#aw"/><use transform="matrix(0.05,0,0,0.05,10,0)" xlink:href="#aj"/><use transform="matrix(0.05,0,0,0.05,15.949999999999998,0)" xlink:href="#ag"/><use transform="matrix(0.05,0,0,0.05,25.950000000000003,0)" xlink:href="#av"/><use transform="matrix(0.05,0,0,0.05,35.95,0)" xlink:href="#ad"/><use transform="matrix(0.05,0,0,0.05,45.95,0)" xlink:href="#al"/><use transform="matrix(0.05,0,0,0.05,54.95,0)" xlink:href="#af"/><use transform="matrix(0.05,0,0,0.05,59.95,0)" xlink:href="#ay"/><use transform="matrix(0.05,0,0,0.05,65.9,0)" xlink:href="#ae"/><use transform="matrix(0.05,0,0,0.05,74.9,0)" xlink:href="#az"/></g><path fill="#333" d="M108 0H70L1-190h34L89-25l56-165h34" id="aA"/><path fill="#333" d="M115-194c53 0 69 39 70 98 0 66-23 100-70 100C84 3 66-7 56-30L54 0H23l1-261h32v101c10-23 28-34 59-34zm-8 174c40 0 45-34 45-75 0-40-5-75-45-74-42 0-51 32-51 76 0 43 10 73 51 73" id="aB"/><path fill="#333" d="M179-190L93 31C79 59 56 82 12 73V49c39 6 53-20 64-50L1-190h34L92-34l54-156h33" id="aC"/><g id="k"><use transform="matrix(0.05,0,0,0.05,0,0)" xlink:href="#an"/><use transform="matrix(0.05,0,0,0.05,10,0)" xlink:href="#aA"/><use transform="matrix(0.05,0,0,0.05,19,0)" xlink:href="#an"/><use transform="matrix(0.05,0,0,0.05,29,0)" xlink:href="#au"/><use transform="matrix(0.05,0,0,0.05,32.95,0)" xlink:href="#at"/><use transform="matrix(0.05,0,0,0.05,36.900000000000006,0)" xlink:href="#an"/><use transform="matrix(0.05,0,0,0.05,46.900000000000006,0)" xlink:href="#aB"/><use transform="matrix(0.05,0,0,0.05,56.900000000000006,0)" xlink:href="#au"/><use transform="matrix(0.05,0,0,0.05,60.85,0)" xlink:href="#at"/><use transform="matrix(0.05,0,0,0.05,64.80000000000001,0)" xlink:href="#au"/><use transform="matrix(0.05,0,0,0.05,68.75000000000001,0)" xlink:href="#af"/><use transform="matrix(0.05,0,0,0.05,73.75000000000001,0)" xlink:href="#aC"/></g><g id="l"><use transform="matrix(0.05,0,0,0.05,0,0)" xlink:href="#as"/><use transform="matrix(0.05,0,0,0.05,10.65,0)" xlink:href="#an"/><use transform="matrix(0.05,0,0,0.05,20.65,0)" xlink:href="#at"/><use transform="matrix(0.05,0,0,0.05,24.599999999999998,0)" xlink:href="#au"/><use transform="matrix(0.05,0,0,0.05,28.549999999999997,0)" xlink:href="#av"/></g><g id="m"><use transform="matrix(0.05,0,0,0.05,0,0)" xlink:href="#aw"/><use transform="matrix(0.05,0,0,0.05,10,0)" xlink:href="#ad"/><use transform="matrix(0.05,0,0,0.05,20,0)" xlink:href="#aj"/><use transform="matrix(0.05,0,0,0.05,25.950000000000003,0)" xlink:href="#al"/><use transform="matrix(0.05,0,0,0.05,34.95,0)" xlink:href="#am"/><use transform="matrix(0.05,0,0,0.05,44.95,0)" xlink:href="#an"/><use transform="matrix(0.05,0,0,0.05,54.95,0)" xlink:href="#ae"/><use transform="matrix(0.05,0,0,0.05,63.95,0)" xlink:href="#ai"/></g><g id="n"><use transform="matrix(0.05,0,0,0.05,0,0)" xlink:href="#aj"/><use transform="matrix(0.05,0,0,0.05,5.95,0)" xlink:href="#ai"/><use transform="matrix(0.05,0,0,0.05,15.949999999999998,0)" xlink:href="#ao"/><use transform="matrix(0.05,0,0,0.05,25.950000000000003,0)" xlink:href="#ad"/><use transform="matrix(0.05,0,0,0.05,35.95,0)" xlink:href="#ai"/><use transform="matrix(0.05,0,0,0.05,45.95,0)" xlink:href="#ae"/><use transform="matrix(0.05,0,0,0.05,54.95,0)" xlink:href="#af"/></g><g id="o"><use transform="matrix(0.05,0,0,0.05,0,0)" xlink:href="#av"/><use transform="matrix(0.05,0,0,0.05,10,0)" xlink:href="#an"/><use transform="matrix(0.05,0,0,0.05,20,0)" xlink:href="#af"/><use transform="matrix(0.05,0,0,0.05,25,0)" xlink:href="#an"/></g><path fill="#333" d="M33 0v-248h34V0H33" id="aD"/><path fill="#333" d="M117-194c89-4 53 116 60 194h-32v-121c0-31-8-49-39-48C34-167 62-67 57 0H25l-1-190h30c1 10-1 24 2 32 11-22 29-35 61-36" id="aE"/><g id="p"><use transform="matrix(0.05,0,0,0.05,0,0)" xlink:href="#aD"/><use transform="matrix(0.05,0,0,0.05,5,0)" xlink:href="#aE"/><use transform="matrix(0.05,0,0,0.05,15,0)" xlink:href="#aA"/><use transform="matrix(0.05,0,0,0.05,24,0)" xlink:href="#an"/><use transform="matrix(0.05,0,0,0.05,34,0)" xlink:href="#at"/><use transform="matrix(0.05,0,0,0.05,37.95,0)" xlink:href="#au"/><use transform="matrix(0.05,0,0,0.05,41.900000000000006,0)" xlink:href="#av"/></g><path fill="#333" d="M101-251c82-7 93 87 43 132L82-64C71-53 59-42 53-27h129V0H18c2-99 128-94 128-182 0-28-16-43-45-43s-46 15-49 41l-32-3c6-41 34-60 81-64" id="aF"/><g id="q"><use transform="matrix(0.05,0,0,0.05,0,0)" xlink:href="#ap"/><use transform="matrix(0.05,0,0,0.05,10,0)" xlink:href="#aq"/><use transform="matrix(0.05,0,0,0.05,15,0)" xlink:href="#aF"/></g><path fill="#333" d="M30-248c118-7 216 8 213 122C240-48 200 0 122 0H30v-248zM63-27c89 8 146-16 146-99s-60-101-146-95v194" id="aG"/><g id="r"><use transform="matrix(0.05,0,0,0.05,0,0)" xlink:href="#aG"/><use transform="matrix(0.05,0,0,0.05,12.950000000000001,0)" xlink:href="#au"/><use transform="matrix(0.05,0,0,0.05,16.900000000000002,0)" xlink:href="#ae"/><use transform="matrix(0.05,0,0,0.05,25.900000000000002,0)" xlink:href="#aw"/><use transform="matrix(0.05,0,0,0.05,35.900000000000006,0)" xlink:href="#at"/><use transform="matrix(0.05,0,0,0.05,39.85000000000001,0)" xlink:href="#an"/><use transform="matrix(0.05,0,0,0.05,49.85000000000001,0)" xlink:href="#aC"/></g><g id="s"><use transform="matrix(0.05,0,0,0.05,0,0)" xlink:href="#ai"/><use transform="matrix(0.05,0,0,0.05,10,0)" xlink:href="#aj"/><use transform="matrix(0.05,0,0,0.05,15.949999999999998,0)" xlink:href="#aj"/><use transform="matrix(0.05,0,0,0.05,21.9,0)" xlink:href="#ag"/><use transform="matrix(0.05,0,0,0.05,31.899999999999995,0)" xlink:href="#aj"/></g><g id="t"><use transform="matrix(0.05,0,0,0.05,0,0)" xlink:href="#af"/><use transform="matrix(0.05,0,0,0.05,5,0)" xlink:href="#ag"/></g><g id="u"><use transform="matrix(0.05,0,0,0.05,0,0)" xlink:href="#ad"/><use transform="matrix(0.05,0,0,0.05,10,0)" xlink:href="#ae"/><use transform="matrix(0.05,0,0,0.05,19,0)" xlink:href="#ai"/><use transform="matrix(0.05,0,0,0.05,29,0)" xlink:href="#aj"/></g><path fill="#333" d="M30 0v-248h187v28H63v79h144v27H63v87h162V0H30" id="aH"/><g id="v"><use transform="matrix(0.05,0,0,0.05,0,0)" xlink:href="#aH"/><use transform="matrix(0.05,0,0,0.05,12,0)" xlink:href="#aj"/><use transform="matrix(0.05,0,0,0.05,17.95,0)" xlink:href="#aj"/><use transform="matrix(0.05,0,0,0.05,23.9,0)" xlink:href="#ag"/><use transform="matrix(0.05,0,0,0.05,33.9,0)" xlink:href="#aj"/></g><path fill="#333" d="M177-190C167-65 218 103 67 71c-23-6-38-20-44-43l32-5c15 47 100 32 89-28v-30C133-14 115 1 83 1 29 1 15-40 15-95c0-56 16-97 71-98 29-1 48 16 59 35 1-10 0-23 2-32h30zM94-22c36 0 50-32 50-73 0-42-14-75-50-75-39 0-46 34-46 75s6 73 46 73" id="aI"/><g id="w"><use transform="matrix(0.05,0,0,0.05,0,0)" xlink:href="#ah"/><use transform="matrix(0.05,0,0,0.05,14.950000000000001,0)" xlink:href="#ai"/><use transform="matrix(0.05,0,0,0.05,24.950000000000003,0)" xlink:href="#ae"/><use transform="matrix(0.05,0,0,0.05,33.95,0)" xlink:href="#ae"/><use transform="matrix(0.05,0,0,0.05,42.95,0)" xlink:href="#an"/><use transform="matrix(0.05,0,0,0.05,52.95,0)" xlink:href="#aI"/><use transform="matrix(0.05,0,0,0.05,62.95,0)" xlink:href="#ai"/></g><g id="x"><use transform="matrix(0.05,0,0,0.05,0,0)" xlink:href="#ak"/><use transform="matrix(0.05,0,0,0.05,12,0)" xlink:href="#aj"/><use transform="matrix(0.05,0,0,0.05,17.95,0)" xlink:href="#ag"/><use transform="matrix(0.05,0,0,0.05,27.950000000000003,0)" xlink:href="#av"/><use transform="matrix(0.05,0,0,0.05,37.95,0)" xlink:href="#ad"/><use transform="matrix(0.05,0,0,0.05,47.95,0)" xlink:href="#al"/><use transform="matrix(0.05,0,0,0.05,56.95,0)" xlink:href="#af"/><use transform="matrix(0.05,0,0,0.05,61.95,0)" xlink:href="#ae"/></g><path fill="#333" d="M140-251c81 0 123 46 123 126C263-46 219 4 140 4 59 4 17-45 17-125s42-126 123-126zm0 227c63 0 89-41 89-101s-29-99-89-99c-61 0-89 39-89 99S79-25 140-24" id="aJ"/><g id="y"><use transform="matrix(0.05,0,0,0.05,0,0)" xlink:href="#aJ"/><use transform="matrix(0.05,0,0,0.05,14,0)" xlink:href="#aj"/><use transform="matrix(0.05,0,0,0.05,19.95,0)" xlink:href="#av"/><use transform="matrix(0.05,0,0,0.05,29.950000000000003,0)" xlink:href="#ai"/><use transform="matrix(0.05,0,0,0.05,39.95,0)" xlink:href="#aj"/></g><g id="z"><use transform="matrix(0.05,0,0,0.05,0,0)" xlink:href="#av"/><use transform="matrix(0.05,0,0,0.05,10,0)" xlink:href="#ai"/><use transform="matrix(0.05,0,0,0.05,20,0)" xlink:href="#af"/><use transform="matrix(0.05,0,0,0.05,25,0)" xlink:href="#an"/><use transform="matrix(0.05,0,0,0.05,35,0)" xlink:href="#au"/><use transform="matrix(0.05,0,0,0.05,38.95,0)" xlink:href="#at"/><use transform="matrix(0.05,0,0,0.05,42.900000000000006,0)" xlink:href="#ae"/></g><g id="A"><use transform="matrix(0.05,0,0,0.05,0,0)" xlink:href="#ak"/><use transform="matrix(0.05,0,0,0.05,12,0)" xlink:href="#aj"/><use transform="matrix(0.05,0,0,0.05,17.95,0)" xlink:href="#ag"/><use transform="matrix(0.05,0,0,0.05,27.950000000000003,0)" xlink:href="#av"/><use transform="matrix(0.05,0,0,0.05,37.95,0)" xlink:href="#ad"/><use transform="matrix(0.05,0,0,0.05,47.95,0)" xlink:href="#al"/><use transform="matrix(0.05,0,0,0.05,56.95,0)" xlink:href="#af"/><use transform="matrix(0.05,0,0,0.05,61.95,0)" xlink:href="#ay"/><use transform="matrix(0.05,0,0,0.05,67.9,0)" xlink:href="#ae"/><use transform="matrix(0.05,0,0,0.05,76.9,0)" xlink:href="#az"/></g><g id="B"><use transform="matrix(0.05,0,0,0.05,0,0)" xlink:href="#ad"/><use transform="matrix(0.05,0,0,0.05,10,0)" xlink:href="#aE"/><use transform="matrix(0.05,0,0,0.05,20,0)" xlink:href="#an"/><use transform="matrix(0.05,0,0,0.05,30,0)" xlink:href="#aA"/><use transform="matrix(0.05,0,0,0.05,39,0)" xlink:href="#an"/><use transform="matrix(0.05,0,0,0.05,49,0)" xlink:href="#au"/><use transform="matrix(0.05,0,0,0.05,52.95,0)" xlink:href="#at"/><use transform="matrix(0.05,0,0,0.05,56.900000000000006,0)" xlink:href="#an"/><use transform="matrix(0.05,0,0,0.05,66.9,0)" xlink:href="#aB"/><use transform="matrix(0.05,0,0,0.05,76.9,0)" xlink:href="#at"/><use transform="matrix(0.05,0,0,0.05,80.85000000000001,0)" xlink:href="#ai"/></g><path fill="#333" d="M185-189c-5-48-123-54-124 2 14 75 158 14 163 119 3 78-121 87-175 55-17-10-28-26-33-46l33-7c5 56 141 63 141-1 0-78-155-14-162-118-5-82 145-84 179-34 5 7 8 16 11 25" id="aK"/><g id="C"><use transform="matrix(0.05,0,0,0.05,0,0)" xlink:href="#aK"/><use transform="matrix(0.05,0,0,0.05,12,0)" xlink:href="#af"/><use transform="matrix(0.05,0,0,0.05,17,0)" xlink:href="#aj"/><use transform="matrix(0.05,0,0,0.05,22.95,0)" xlink:href="#au"/><use transform="matrix(0.05,0,0,0.05,26.899999999999995,0)" xlink:href="#aw"/><use transform="matrix(0.05,0,0,0.05,36.9,0)" xlink:href="#ai"/></g><path fill="#333" d="M205 0l-28-72H64L36 0H1l101-248h38L239 0h-34zm-38-99l-47-123c-12 45-31 82-46 123h93" id="aL"/><g id="D"><use transform="matrix(0.05,0,0,0.05,0,0)" xlink:href="#aL"/><use transform="matrix(0.05,0,0,0.05,12,0)" xlink:href="#ak"/><use transform="matrix(0.05,0,0,0.05,24,0)" xlink:href="#aD"/></g><path fill="#333" d="M126-127c33 6 58 20 58 59 0 88-139 92-164 29-3-8-5-16-6-25l32-3c6 27 21 44 54 44 32 0 52-15 52-46 0-38-36-46-79-43v-28c39 1 72-4 72-42 0-27-17-43-46-43-28 0-47 15-49 41l-32-3c6-42 35-63 81-64 48-1 79 21 79 65 0 36-21 52-52 59" id="aM"/><g id="E"><use transform="matrix(0.05,0,0,0.05,0,0)" xlink:href="#ap"/><use transform="matrix(0.05,0,0,0.05,10,0)" xlink:href="#aq"/><use transform="matrix(0.05,0,0,0.05,15,0)" xlink:href="#aM"/></g><g id="F"><use transform="matrix(0.05,0,0,0.05,0,0)" xlink:href="#as"/><use transform="matrix(0.05,0,0,0.05,10.65,0)" xlink:href="#an"/><use transform="matrix(0.05,0,0,0.05,20.65,0)" xlink:href="#at"/><use transform="matrix(0.05,0,0,0.05,24.599999999999998,0)" xlink:href="#av"/><use transform="matrix(0.05,0,0,0.05,34.599999999999994,0)" xlink:href="#au"/><use transform="matrix(0.05,0,0,0.05,38.55,0)" xlink:href="#an"/><use transform="matrix(0.05,0,0,0.05,48.55,0)" xlink:href="#af"/><use transform="matrix(0.05,0,0,0.05,53.54999999999999,0)" xlink:href="#ai"/></g><g id="G"><use transform="matrix(0.05,0,0,0.05,0,0)" xlink:href="#ak"/><use transform="matrix(0.05,0,0,0.05,12,0)" xlink:href="#an"/><use transform="matrix(0.05,0,0,0.05,22,0)" xlink:href="#aC"/><use transform="matrix(0.05,0,0,0.05,31,0)" xlink:href="#ah"/><use transform="matrix(0.05,0,0,0.05,45.95,0)" xlink:href="#ai"/><use transform="matrix(0.05,0,0,0.05,55.95,0)" xlink:href="#aE"/><use transform="matrix(0.05,0,0,0.05,65.95,0)" xlink:href="#af"/></g><g id="H"><use transform="matrix(0.05,0,0,0.05,0,0)" xlink:href="#ak"/><use transform="matrix(0.05,0,0,0.05,12,0)" xlink:href="#aj"/><use transform="matrix(0.05,0,0,0.05,17.95,0)" xlink:href="#ag"/><use transform="matrix(0.05,0,0,0.05,27.950000000000003,0)" xlink:href="#av"/><use transform="matrix(0.05,0,0,0.05,37.95,0)" xlink:href="#ad"/><use transform="matrix(0.05,0,0,0.05,47.95,0)" xlink:href="#al"/><use transform="matrix(0.05,0,0,0.05,56.95,0)" xlink:href="#af"/><use transform="matrix(0.05,0,0,0.05,61.95,0)" xlink:href="#ay"/><use transform="matrix(0.05,0,0,0.05,67.9,0)" xlink:href="#ae"/><use transform="matrix(0.05,0,0,0.05,76.9,0)" xlink:href="#az"/></g><g id="I"><use transform="matrix(0.05,0,0,0.05,0,0)" xlink:href="#an"/><use transform="matrix(0.05,0,0,0.05,10,0)" xlink:href="#aA"/><use transform="matrix(0.05,0,0,0.05,19,0)" xlink:href="#an"/><use transform="matrix(0.05,0,0,0.05,29,0)" xlink:href="#au"/><use transform="matrix(0.05,0,0,0.05,32.95,0)" xlink:href="#at"/><use transform="matrix(0.05,0,0,0.05,36.900000000000006,0)" xlink:href="#an"/><use transform="matrix(0.05,0,0,0.05,46.900000000000006,0)" xlink:href="#aB"/><use transform="matrix(0.05,0,0,0.05,56.900000000000006,0)" xlink:href="#at"/><use transform="matrix(0.05,0,0,0.05,60.85,0)" xlink:href="#ai"/></g><g id="J"><use transform="matrix(0.05,0,0,0.05,0,0)" xlink:href="#ak"/><use transform="matrix(0.05,0,0,0.05,12,0)" xlink:href="#an"/><use transform="matrix(0.05,0,0,0.05,22,0)" xlink:href="#aC"/><use transform="matrix(0.05,0,0,0.05,31,0)" xlink:href="#ah"/><use transform="matrix(0.05,0,0,0.05,45.95,0)" xlink:href="#ai"/><use transform="matrix(0.05,0,0,0.05,55.95,0)" xlink:href="#aE"/><use transform="matrix(0.05,0,0,0.05,65.95,0)" xlink:href="#af"/></g><path fill="#333" d="M232-93c-1 65-40 97-104 97C67 4 28-28 28-90v-158h33c8 89-33 224 67 224 102 0 64-133 71-224h33v155" id="aN"/><path fill="#333" d="M101-234c-31-9-42 10-38 44h38v23H63V0H32v-167H5v-23h27c-7-52 17-82 69-68v24" id="aO"/><g id="K"><use transform="matrix(0.05,0,0,0.05,0,0)" xlink:href="#aN"/><use transform="matrix(0.05,0,0,0.05,12.950000000000001,0)" xlink:href="#aE"/><use transform="matrix(0.05,0,0,0.05,22.950000000000003,0)" xlink:href="#ae"/><use transform="matrix(0.05,0,0,0.05,31.950000000000003,0)" xlink:href="#ad"/><use transform="matrix(0.05,0,0,0.05,41.95,0)" xlink:href="#al"/><use transform="matrix(0.05,0,0,0.05,50.95,0)" xlink:href="#al"/><use transform="matrix(0.05,0,0,0.05,59.95,0)" xlink:href="#ai"/><use transform="matrix(0.05,0,0,0.05,69.95,0)" xlink:href="#ae"/><use transform="matrix(0.05,0,0,0.05,78.95,0)" xlink:href="#ae"/><use transform="matrix(0.05,0,0,0.05,87.95,0)" xlink:href="#aO"/><use transform="matrix(0.05,0,0,0.05,92.95,0)" xlink:href="#ad"/><use transform="matrix(0.05,0,0,0.05,102.95,0)" xlink:href="#at"/></g><g id="L"><use transform="matrix(0.05,0,0,0.05,0,0)" xlink:href="#aw"/><use transform="matrix(0.05,0,0,0.05,10,0)" xlink:href="#an"/><use transform="matrix(0.05,0,0,0.05,20,0)" xlink:href="#aC"/><use transform="matrix(0.05,0,0,0.05,29,0)" xlink:href="#ah"/><use transform="matrix(0.05,0,0,0.05,43.95,0)" xlink:href="#ai"/><use transform="matrix(0.05,0,0,0.05,53.95,0)" xlink:href="#aE"/><use transform="matrix(0.05,0,0,0.05,63.95,0)" xlink:href="#af"/></g><path fill="#333" d="M155-56V0h-30v-56H8v-25l114-167h33v167h35v25h-35zm-30-156c-27 46-58 90-88 131h88v-131" id="aP"/><g id="M"><use transform="matrix(0.05,0,0,0.05,0,0)" xlink:href="#ap"/><use transform="matrix(0.05,0,0,0.05,10,0)" xlink:href="#aq"/><use transform="matrix(0.05,0,0,0.05,15,0)" xlink:href="#aP"/></g><g id="N"><use transform="matrix(0.05,0,0,0.05,0,0)" xlink:href="#aN"/><use transform="matrix(0.05,0,0,0.05,12.950000000000001,0)" xlink:href="#aw"/><use transform="matrix(0.05,0,0,0.05,22.950000000000003,0)" xlink:href="#av"/><use transform="matrix(0.05,0,0,0.05,32.95,0)" xlink:href="#an"/><use transform="matrix(0.05,0,0,0.05,42.95,0)" xlink:href="#af"/><use transform="matrix(0.05,0,0,0.05,47.95,0)" xlink:href="#ai"/></g><g id="O"><use transform="matrix(0.05,0,0,0.05,0,0)" xlink:href="#aw"/><use transform="matrix(0.05,0,0,0.05,10,0)" xlink:href="#aj"/><use transform="matrix(0.05,0,0,0.05,15.949999999999998,0)" xlink:href="#ag"/><use transform="matrix(0.05,0,0,0.05,25.950000000000003,0)" xlink:href="#av"/><use transform="matrix(0.05,0,0,0.05,35.95,0)" xlink:href="#ad"/><use transform="matrix(0.05,0,0,0.05,45.95,0)" xlink:href="#al"/><use transform="matrix(0.05,0,0,0.05,54.95,0)" xlink:href="#af"/></g><g id="P"><use transform="matrix(0.05,0,0,0.05,0,0)" xlink:href="#ae"/><use transform="matrix(0.05,0,0,0.05,9,0)" xlink:href="#af"/><use transform="matrix(0.05,0,0,0.05,14,0)" xlink:href="#ag"/><use transform="matrix(0.05,0,0,0.05,24,0)" xlink:href="#aj"/><use transform="matrix(0.05,0,0,0.05,29.950000000000003,0)" xlink:href="#ai"/></g><g id="Q"><use transform="matrix(0.05,0,0,0.05,0,0)" xlink:href="#aK"/><use transform="matrix(0.05,0,0,0.05,12,0)" xlink:href="#ad"/><use transform="matrix(0.05,0,0,0.05,22,0)" xlink:href="#al"/><use transform="matrix(0.05,0,0,0.05,31,0)" xlink:href="#al"/><use transform="matrix(0.05,0,0,0.05,40,0)" xlink:href="#ai"/><use transform="matrix(0.05,0,0,0.05,50,0)" xlink:href="#ae"/><use transform="matrix(0.05,0,0,0.05,59,0)" xlink:href="#ae"/><use transform="matrix(0.05,0,0,0.05,68,0)" xlink:href="#aO"/><use transform="matrix(0.05,0,0,0.05,73,0)" xlink:href="#ad"/><use transform="matrix(0.05,0,0,0.05,83,0)" xlink:href="#at"/></g><g id="R"><use transform="matrix(0.05,0,0,0.05,0,0)" xlink:href="#aw"/><use transform="matrix(0.05,0,0,0.05,10,0)" xlink:href="#an"/><use transform="matrix(0.05,0,0,0.05,20,0)" xlink:href="#aC"/><use transform="matrix(0.05,0,0,0.05,29,0)" xlink:href="#ah"/><use transform="matrix(0.05,0,0,0.05,43.95,0)" xlink:href="#ai"/><use transform="matrix(0.05,0,0,0.05,53.95,0)" xlink:href="#aE"/><use transform="matrix(0.05,0,0,0.05,63.95,0)" xlink:href="#af"/></g><path fill="#333" d="M54-142c48-35 137-8 131 61C196 18 31 33 14-55l32-4c7 23 22 37 52 37 35-1 51-22 54-58 4-55-73-65-99-34H22l8-134h141v27H59" id="aQ"/><g id="S"><use transform="matrix(0.05,0,0,0.05,0,0)" xlink:href="#ap"/><use transform="matrix(0.05,0,0,0.05,10,0)" xlink:href="#aq"/><use transform="matrix(0.05,0,0,0.05,15,0)" xlink:href="#aQ"/></g><g id="T"><use transform="matrix(0.05,0,0,0.05,0,0)" xlink:href="#ae"/><use transform="matrix(0.05,0,0,0.05,9,0)" xlink:href="#ad"/><use transform="matrix(0.05,0,0,0.05,19,0)" xlink:href="#al"/><use transform="matrix(0.05,0,0,0.05,28,0)" xlink:href="#al"/><use transform="matrix(0.05,0,0,0.05,37,0)" xlink:href="#ai"/><use transform="matrix(0.05,0,0,0.05,47,0)" xlink:href="#ae"/><use transform="matrix(0.05,0,0,0.05,56,0)" xlink:href="#ae"/></g><g id="U"><use transform="matrix(0.05,0,0,0.05,0,0)" xlink:href="#ah"/><use transform="matrix(0.05,0,0,0.05,14.950000000000001,0)" xlink:href="#ai"/><use transform="matrix(0.05,0,0,0.05,24.950000000000003,0)" xlink:href="#ae"/><use transform="matrix(0.05,0,0,0.05,33.95,0)" xlink:href="#ae"/><use transform="matrix(0.05,0,0,0.05,42.95,0)" xlink:href="#an"/><use transform="matrix(0.05,0,0,0.05,52.95,0)" xlink:href="#aI"/><use transform="matrix(0.05,0,0,0.05,62.95,0)" xlink:href="#ai"/></g><g id="V"><use transform="matrix(0.05,0,0,0.05,0,0)" xlink:href="#af"/><use transform="matrix(0.05,0,0,0.05,5,0)" xlink:href="#ag"/></g><g id="W"><use transform="matrix(0.05,0,0,0.05,0,0)" xlink:href="#aK"/><use transform="matrix(0.05,0,0,0.05,12,0)" xlink:href="#af"/><use transform="matrix(0.05,0,0,0.05,17,0)" xlink:href="#ag"/><use transform="matrix(0.05,0,0,0.05,27,0)" xlink:href="#aj"/><use transform="matrix(0.05,0,0,0.05,32.95,0)" xlink:href="#ai"/></g><g id="X"><use transform="matrix(0.05,0,0,0.05,0,0)" xlink:href="#ad"/><use transform="matrix(0.05,0,0,0.05,10,0)" xlink:href="#aw"/><use transform="matrix(0.05,0,0,0.05,20,0)" xlink:href="#av"/><use transform="matrix(0.05,0,0,0.05,30,0)" xlink:href="#an"/><use transform="matrix(0.05,0,0,0.05,40,0)" xlink:href="#af"/><use transform="matrix(0.05,0,0,0.05,45,0)" xlink:href="#ai"/></g><g id="Z"><use transform="matrix(0.05,0,0,0.05,0,0)" xlink:href="#aj"/><use transform="matrix(0.05,0,0,0.05,5.95,0)" xlink:href="#ai"/><use transform="matrix(0.05,0,0,0.05,15.949999999999998,0)" xlink:href="#ae"/><use transform="matrix(0.05,0,0,0.05,24.95,0)" xlink:href="#aw"/><use transform="matrix(0.05,0,0,0.05,34.95,0)" xlink:href="#ag"/><use transform="matrix(0.05,0,0,0.05,44.95,0)" xlink:href="#aE"/><use transform="matrix(0.05,0,0,0.05,54.95,0)" xlink:href="#ae"/><use transform="matrix(0.05,0,0,0.05,63.95,0)" xlink:href="#ai"/></g><g id="aa"><use transform="matrix(0.05,0,0,0.05,0,0)" xlink:href="#aK"/><use transform="matrix(0.05,0,0,0.05,12,0)" xlink:href="#ad"/><use transform="matrix(0.05,0,0,0.05,22,0)" xlink:href="#al"/><use transform="matrix(0.05,0,0,0.05,31,0)" xlink:href="#al"/><use transform="matrix(0.05,0,0,0.05,40,0)" xlink:href="#ai"/><use transform="matrix(0.05,0,0,0.05,50,0)" xlink:href="#ae"/><use transform="matrix(0.05,0,0,0.05,59,0)" xlink:href="#ae"/></g><g id="ab"><use transform="matrix(0.05,0,0,0.05,0,0)" xlink:href="#ah"/><use transform="matrix(0.05,0,0,0.05,14.950000000000001,0)" xlink:href="#ai"/><use transform="matrix(0.05,0,0,0.05,24.950000000000003,0)" xlink:href="#ae"/><use transform="matrix(0.05,0,0,0.05,33.95,0)" xlink:href="#ae"/><use transform="matrix(0.05,0,0,0.05,42.95,0)" xlink:href="#an"/><use transform="matrix(0.05,0,0,0.05,52.95,0)" xlink:href="#aI"/><use transform="matrix(0.05,0,0,0.05,62.95,0)" xlink:href="#ai"/></g></defs></g></svg>