<svg xmlns="http://www.w3.org/2000/svg" xmlns:xlink="http://www.w3.org/1999/xlink" xmlns:lucid="lucid" width="1402" height="1211"><g transform="translate(-1557 -78)" lucid:page-tab-id="0_0"><path d="M0 0h2959.2v1573.33H0z" fill="#fff"/><path d="M1600 808c0-4.42 3.58-8 8-8h164c4.42 0 8 3.58 8 8v124c0 4.42-3.58 8-8 8h-164c-4.42 0-8-3.58-8-8z" stroke="#333" fill="#fff"/><use xlink:href="#a" transform="matrix(1,0,0,1,1620,800) translate(31.074999999999996 73.60000000000001)"/><path d="M2144 575.2c8.84 0 16 7.16 16 16v128c0 8.83-7.16 16-16 16h-168c-8.84 0-16-7.17-16-16v-128c0-8.84 7.16-16 16-16z" stroke="#333" fill="#fff"/><path d="M1960 623.2h200" stroke="#333" fill="none"/><use xlink:href="#b" transform="matrix(1,0,0,1,1980,575.1938941869304) translate(67.5 27.6)"/><use xlink:href="#c" transform="matrix(1,0,0,1,1980,633.1938941869304) translate(27.27499999999999 49.6)"/><use xlink:href="#d" transform="matrix(1,0,0,1,1980,633.1938941869304) translate(70.82499999999999 49.6)"/><path d="M1870.5 808.03l-.42 3.2-1.24 3-2 2.6-2.6 2-3 1.25-3.2.42H1781v-1h76.97l3-.4 2.77-1.14 2.4-1.83 1.82-2.4 1.14-2.75.4-3V759.2h1zm72.62-152.34h-61.1l-3 .4-2.76 1.13-2.4 1.84-1.82 2.38-1.14 2.76-.4 3.03V716h-1v-48.84l.42-3.2 1.24-3 2-2.6 2.6-2 3-1.25 3.2-.4h61.16zM1781 820.5h-.5v-1h.5zM1957.88 655.2l-14.26 4.63v-9.27z" fill="#333"/><path d="M1959.5 655.2l-16.38 5.32v-10.65zm-15.38 3.94l12.14-3.95-12.14-3.95z" fill="#333"/><use xlink:href="#e" transform="matrix(1,0,0,1,1836.525,715.9969470934674) translate(2.530000000000001 14.4)"/><use xlink:href="#f" transform="matrix(1,0,0,1,1836.525,715.9969470934674) translate(0.005000000000002558 36)"/><path d="M2144 805.2c8.84 0 16 7.16 16 16v128c0 8.83-7.16 16-16 16h-168c-8.84 0-16-7.17-16-16v-128c0-8.84 7.16-16 16-16z" stroke="#333" fill="#fff"/><path d="M1960 853.2h200" stroke="#333" fill="none"/><use xlink:href="#g" transform="matrix(1,0,0,1,1980,805.1938941869304) translate(67.5 27.6)"/><use xlink:href="#h" transform="matrix(1,0,0,1,1980,863.1938941869304) translate(15.75 38.8)"/><use xlink:href="#i" transform="matrix(1,0,0,1,1980,863.1938941869304) translate(84.3 38.8)"/><use xlink:href="#j" transform="matrix(1,0,0,1,1980,863.1938941869304) translate(73.025 60.4)"/><path d="M1839.03 870.5H1781v-1h58.03zm104.1 0h-42.16v-1h42.15zM1781 870.5h-.5v-1h.5zM1957.88 870l-14.26 4.64v-9.28z" fill="#333"/><path d="M1959.5 870l-16.38 5.32v-10.64zm-15.38 3.95l12.14-3.95-12.14-3.95z" fill="#333"/><use xlink:href="#k" transform="matrix(1,0,0,1,1839.025,848.4) translate(0.004999999999999005 14.4)"/><use xlink:href="#l" transform="matrix(1,0,0,1,1839.025,848.4) translate(1.004999999999999 36)"/><path d="M1781 919h162.12" stroke="#333" fill="none"/><path d="M1781 919.5h-.5v-1h.5z" fill="#333"/><path d="M1957.88 919l-14.26 4.64v-9.27z" stroke="#333" fill="#333"/><use xlink:href="#m" transform="matrix(1,0,0,1,1807.075,923.0067168926207) translate(0.005000000000002558 14.4)"/><use xlink:href="#n" transform="matrix(1,0,0,1,1807.075,923.0067168926207) translate(37.005 14.4)"/><use xlink:href="#o" transform="matrix(1,0,0,1,1807.075,923.0067168926207) translate(75.905 14.4)"/><use xlink:href="#p" transform="matrix(1,0,0,1,1807.075,923.0067168926207) translate(95.905 14.4)"/><use xlink:href="#l" transform="matrix(1,0,0,1,1807.075,923.0067168926207) translate(32.955000000000005 36)"/><path d="M2144 1090c8.84 0 16 7.16 16 16v128c0 8.84-7.16 16-16 16h-168c-8.84 0-16-7.16-16-16v-128c0-8.84 7.16-16 16-16z" stroke="#333" fill="#fff"/><path d="M1960 1138h200" stroke="#333" fill="none"/><use xlink:href="#q" transform="matrix(1,0,0,1,1980,1090) translate(67.5 27.6)"/><use xlink:href="#r" transform="matrix(1,0,0,1,1980,1148) translate(19.14999999999999 38.8)"/><use xlink:href="#s" transform="matrix(1,0,0,1,1980,1148) translate(83 38.8)"/><use xlink:href="#t" transform="matrix(1,0,0,1,1980,1148) translate(125.85000000000001 38.8)"/><use xlink:href="#u" transform="matrix(1,0,0,1,1980,1148) translate(43.05 60.4)"/><path d="M2060.5 1073.12h-1v-23.92h1zm0-67.12h-1v-39.8h1z" fill="#333"/><path d="M2060.5 966.2h-1v-.5h1zM2060 1087.88l-4.64-14.26h9.28z" fill="#333"/><path d="M2060 1089.5l-5.32-16.38h10.64zm-3.95-15.38l3.95 12.14 3.95-12.14z" fill="#333"/><use xlink:href="#v" transform="matrix(1,0,0,1,2001.575,1005.9969470934651) translate(0.005000000000002558 14.4)"/><use xlink:href="#w" transform="matrix(1,0,0,1,2001.575,1005.9969470934651) translate(56.90500000000001 14.4)"/><use xlink:href="#j" transform="matrix(1,0,0,1,2001.575,1005.9969470934651) translate(51.455000000000005 36)"/><path d="M1959 1169.5v1h-217.03v-1zm-268.5-21.1h-1V956.88h1zM1959.5 1170.5h-.5v-1h.5zM1694.64 956.38h-9.28l4.64-14.26z" fill="#333"/><path d="M1695.32 956.88h-10.64l5.32-16.38zm-9.27-1h7.9l-3.95-12.14z" fill="#333"/><use xlink:href="#x" transform="matrix(1,0,0,1,1678.025,1148.4) translate(12.055 14.4)"/><use xlink:href="#y" transform="matrix(1,0,0,1,1678.025,1148.4) translate(0.004999999999999005 36)"/><path d="M2340 843.2c0-4.42 3.58-8 8-8h184c4.42 0 8 3.58 8 8v84c0 4.4-3.58 8-8 8h-184c-4.42 0-8-3.6-8-8z" fill="#fff"/><path d="M2340 835.2h200m0 100h-200" stroke="#333" fill="#fff"/><use xlink:href="#z" transform="matrix(1,0,0,1,2360,835.1938941869304) translate(44.525 53.6)"/><path d="M2161 900.23h162.62" stroke="#333" fill="none"/><path d="M2161 900.73h-.5v-1h.5z" fill="#333"/><path d="M2338.38 900.23l-14.26 4.64v-9.27z" stroke="#333" fill="#333"/><use xlink:href="#A" transform="matrix(1,0,0,1,2198.5,904.231310848578) translate(0.005000000000002558 14.4)"/><use xlink:href="#w" transform="matrix(1,0,0,1,2198.5,904.231310848578) translate(43.555 14.4)"/><use xlink:href="#j" transform="matrix(1,0,0,1,2198.5,904.231310848578) translate(44.78 36)"/><path d="M2250.75 847.77l.4 3.02 1.14 2.75 1.82 2.4 2.4 1.82 2.75 1.14 3 .4h61.35v1h-61.4l-3.2-.4-3-1.26-2.6-2-2-2.6-1.25-3-.42-3.2V779.1h1zm-9.26-192.66l3 1.26 2.6 2 2 2.6 1.23 3 .42 3.2v68.74h-1v-68.67l-.4-3.02-1.14-2.75-1.82-2.38-2.4-1.84-2.75-1.14-3-.4H2161v-1h77.28zM2161 655.7h-.5v-1h.5zM2338.38 859.8l-14.26 4.64v-9.27z" fill="#333"/><path d="M2340 859.8l-16.38 5.33v-10.65zm-15.38 3.95l12.14-3.94-12.14-3.94z" fill="#333"/><use xlink:href="#e" transform="matrix(1,0,0,1,2219.3,735.9003063739291) translate(0.004999999999999005 14.4)"/><use xlink:href="#l" transform="matrix(1,0,0,1,2219.3,735.9003063739291) translate(0.9800000000000004 36)"/><path d="M2904 805.2c8.84 0 16 7.16 16 16v128c0 8.83-7.16 16-16 16h-168c-8.84 0-16-7.17-16-16v-128c0-8.84 7.16-16 16-16z" stroke="#333" fill="#fff"/><path d="M2720 853.2h200" stroke="#333" fill="none"/><use xlink:href="#B" transform="matrix(1,0,0,1,2740,805.1938941869304) translate(67.5 27.6)"/><use xlink:href="#C" transform="matrix(1,0,0,1,2740,863.1938941869304) translate(35.075 38.8)"/><use xlink:href="#D" transform="matrix(1,0,0,1,2740,863.1938941869304) translate(91.025 38.8)"/><use xlink:href="#E" transform="matrix(1,0,0,1,2740,863.1938941869304) translate(38.62499999999999 60.4)"/><path d="M2578.8 885.7h-38.3v-1h38.3zm124.32 0h-62.36v-1h62.36zM2540.5 885.7h-.5v-1h.5zM2717.88 885.2l-14.26 4.63v-9.27z" fill="#333"/><path d="M2719.5 885.2l-16.38 5.32v-10.65zm-15.38 3.94l12.14-3.95-12.14-3.95z" fill="#333"/><use xlink:href="#k" transform="matrix(1,0,0,1,2578.8064401219544,863.5938941869304) translate(0.004999999999999005 14.4)"/><use xlink:href="#j" transform="matrix(1,0,0,1,2578.8064401219544,863.5938941869304) translate(24.005000000000003 36)"/><path d="M2768.9 1170.5H2176.9v-1h592.03zm51.6-32.9h-1V966.2h1zM2820.5 966.2h-1v-.5h1zM2176.38 1174.64l-14.26-4.64 14.26-4.64z" fill="#333"/><path d="M2176.88 1175.32l-16.38-5.32 16.38-5.32zm-13.14-5.32l12.14 3.95v-7.9z" fill="#333"/><use xlink:href="#F" transform="matrix(1,0,0,1,2768.9095480754736,1137.6) translate(14.455000000000005 14.4)"/><use xlink:href="#G" transform="matrix(1,0,0,1,2768.9095480754736,1137.6) translate(0.005000000000002558 36)"/><use xlink:href="#H" transform="matrix(1,0,0,1,2768.9095480754736,1137.6) translate(8.455000000000005 57.6)"/><path d="M2144 115.2c8.84 0 16 7.16 16 16v128c0 8.83-7.16 16-16 16h-168c-8.84 0-16-7.17-16-16v-128c0-8.84 7.16-16 16-16z" stroke="#333" fill="#fff"/><path d="M1960 163.2h200" stroke="#333" fill="none"/><use xlink:href="#I" transform="matrix(1,0,0,1,1980,115.19389418693038) translate(67.5 27.6)"/><use xlink:href="#J" transform="matrix(1,0,0,1,1980,173.19389418693038) translate(12.049999999999997 38.8)"/><use xlink:href="#K" transform="matrix(1,0,0,1,1980,173.19389418693038) translate(75 38.8)"/><use xlink:href="#L" transform="matrix(1,0,0,1,1980,173.19389418693038) translate(65.025 60.4)"/><path d="M2820.5 804.2h-1V227.6h1zm-643.62-608.5v-1h601.47v1z" fill="#333"/><path d="M2820.5 804.7h-1v-.52h1zM2176.38 199.83l-14.26-4.64 14.26-4.64z" fill="#333"/><path d="M2176.88 200.52l-16.38-5.33 16.38-5.33zm-13.14-5.33l12.14 3.94v-7.9z" fill="#333"/><g><use xlink:href="#F" transform="matrix(1,0,0,1,2778.34772734095,162.79389418693037) translate(6.005000000000003 14.4)"/><use xlink:href="#M" transform="matrix(1,0,0,1,2778.34772734095,162.79389418693037) translate(1.5549999999999997 36)"/><use xlink:href="#H" transform="matrix(1,0,0,1,2778.34772734095,162.79389418693037) translate(0.005000000000002558 57.6)"/></g><path d="M1641.87 783.12h-1V221.6h1zM1959 195.7h-262.18v-1H1959zM1959.5 195.7h-.5v-1h.5zM1641.37 797.88l-4.64-14.26h9.27z" fill="#333"/><path d="M1641.37 799.5l-5.33-16.38h10.65zm-3.95-15.38l3.95 12.14 3.94-12.14z" fill="#333"/><g><use xlink:href="#N" transform="matrix(1,0,0,1,1585.9157599555342,178.40000000000182) translate(0.005000000000002558 14.4)"/><use xlink:href="#p" transform="matrix(1,0,0,1,1585.9157599555342,178.40000000000182) translate(80.95500000000001 14.4)"/><use xlink:href="#O" transform="matrix(1,0,0,1,1585.9157599555342,178.40000000000182) translate(37.955000000000005 36)"/></g><path d="M2144 345.2c8.84 0 16 7.16 16 16v128c0 8.83-7.16 16-16 16h-168c-8.84 0-16-7.17-16-16v-128c0-8.84 7.16-16 16-16z" stroke="#333" fill="#fff"/><path d="M1960 393.2h200" stroke="#333" fill="none"/><g><use xlink:href="#P" transform="matrix(1,0,0,1,1980,345.1938941869304) translate(67.5 27.6)"/></g><g><use xlink:href="#Q" transform="matrix(1,0,0,1,1980,403.1938941869304) translate(50.574999999999996 38.8)"/><use xlink:href="#R" transform="matrix(1,0,0,1,1980,403.1938941869304) translate(18.549999999999997 60.4)"/></g><path d="M2440.5 834.2h-1V503.82h1zm-263.62-354.43v-1h199.7v1z" fill="#333"/><path d="M2440.5 834.7h-1v-.52h1zM2176.38 483.9l-14.26-4.63 14.26-4.64z" fill="#333"/><path d="M2176.88 484.6l-16.38-5.33 16.38-5.33zm-13.14-5.33l12.14 3.94v-7.88z" fill="#333"/><g><use xlink:href="#S" transform="matrix(1,0,0,1,2376.575,460.6314815522581) translate(0.005000000000002558 14.4)"/><use xlink:href="#O" transform="matrix(1,0,0,1,2376.575,460.6314815522581) translate(45.93000000000001 36)"/></g><path d="M1742.66 783.12h-1V452.27h1zM1959 425.7h-153.4v-1H1959zM1959.5 425.7h-.5v-1h.5zM1742.16 797.88l-4.64-14.26h9.28z" fill="#333"/><path d="M1742.16 799.5l-5.32-16.38h10.64zm-3.95-15.38l3.96 12.14 3.95-12.14z" fill="#333"/><g><use xlink:href="#S" transform="matrix(1,0,0,1,1678.73504503408,409.06666666667047) translate(0.005000000000002558 14.4)"/><use xlink:href="#O" transform="matrix(1,0,0,1,1678.73504503408,409.06666666667047) translate(45.93000000000001 36)"/></g><defs><path fill="#333" d="M212-179c-10-28-35-45-73-45-59 0-87 40-87 99 0 60 29 101 89 101 43 0 62-24 78-52l27 14C228-24 195 4 139 4 59 4 22-46 18-125c-6-104 99-153 187-111 19 9 31 26 39 46" id="T"/><path fill="#333" d="M84 4C-5 8 30-112 23-190h32v120c0 31 7 50 39 49 72-2 45-101 50-169h31l1 190h-30c-1-10 1-25-2-33-11 22-28 36-60 37" id="U"/><path fill="#333" d="M135-143c-3-34-86-38-87 0 15 53 115 12 119 90S17 21 10-45l28-5c4 36 97 45 98 0-10-56-113-15-118-90-4-57 82-63 122-42 12 7 21 19 24 35" id="V"/><path fill="#333" d="M59-47c-2 24 18 29 38 22v24C64 9 27 4 27-40v-127H5v-23h24l9-43h21v43h35v23H59v120" id="W"/><path fill="#333" d="M100-194c62-1 85 37 85 99 1 63-27 99-86 99S16-35 15-95c0-66 28-99 85-99zM99-20c44 1 53-31 53-75 0-43-8-75-51-75s-53 32-53 75 10 74 51 75" id="X"/><path fill="#333" d="M210-169c-67 3-38 105-44 169h-31v-121c0-29-5-50-35-48C34-165 62-65 56 0H25l-1-190h30c1 10-1 24 2 32 10-44 99-50 107 0 11-21 27-35 58-36 85-2 47 119 55 194h-31v-121c0-29-5-49-35-48" id="Y"/><path fill="#333" d="M100-194c63 0 86 42 84 106H49c0 40 14 67 53 68 26 1 43-12 49-29l28 8c-11 28-37 45-77 45C44 4 14-33 15-96c1-61 26-98 85-98zm52 81c6-60-76-77-97-28-3 7-6 17-6 28h103" id="Z"/><path fill="#333" d="M114-163C36-179 61-72 57 0H25l-1-190h30c1 12-1 29 2 39 6-27 23-49 58-41v29" id="aa"/><g id="a"><use transform="matrix(0.05,0,0,0.05,0,0)" xlink:href="#T"/><use transform="matrix(0.05,0,0,0.05,12.950000000000001,0)" xlink:href="#U"/><use transform="matrix(0.05,0,0,0.05,22.950000000000003,0)" xlink:href="#V"/><use transform="matrix(0.05,0,0,0.05,31.950000000000003,0)" xlink:href="#W"/><use transform="matrix(0.05,0,0,0.05,36.95,0)" xlink:href="#X"/><use transform="matrix(0.05,0,0,0.05,46.95,0)" xlink:href="#Y"/><use transform="matrix(0.05,0,0,0.05,61.900000000000006,0)" xlink:href="#Z"/><use transform="matrix(0.05,0,0,0.05,71.9,0)" xlink:href="#aa"/></g><path fill="#333" d="M27 0v-27h64v-190l-56 39v-29l58-41h29v221h61V0H27" id="ab"/><path fill="#333" d="M33 0v-38h34V0H33" id="ac"/><path fill="#333" d="M101-251c68 0 85 55 85 127S166 4 100 4C33 4 14-52 14-124c0-73 17-127 87-127zm-1 229c47 0 54-49 54-102s-4-102-53-102c-51 0-55 48-55 102 0 53 5 102 54 102" id="ad"/><g id="b"><use transform="matrix(0.05,0,0,0.05,0,0)" xlink:href="#ab"/><use transform="matrix(0.05,0,0,0.05,10,0)" xlink:href="#ac"/><use transform="matrix(0.05,0,0,0.05,15,0)" xlink:href="#ad"/></g><path fill="#333" d="M137 0h-34L2-248h35l83 218 83-218h36" id="ae"/><path fill="#333" d="M24-231v-30h32v30H24zM24 0v-190h32V0H24" id="af"/><path fill="#333" d="M206 0h-36l-40-164L89 0H53L-1-190h32L70-26l43-164h34l41 164 42-164h31" id="ag"/><g id="c"><use transform="matrix(0.05,0,0,0.05,0,0)" xlink:href="#ae"/><use transform="matrix(0.05,0,0,0.05,11.65,0)" xlink:href="#af"/><use transform="matrix(0.05,0,0,0.05,15.600000000000001,0)" xlink:href="#Z"/><use transform="matrix(0.05,0,0,0.05,25.6,0)" xlink:href="#ag"/></g><path fill="#333" d="M141-36C126-15 110 5 73 4 37 3 15-17 15-53c-1-64 63-63 125-63 3-35-9-54-41-54-24 1-41 7-42 31l-33-3c5-37 33-52 76-52 45 0 72 20 72 64v82c-1 20 7 32 28 27v20c-31 9-61-2-59-35zM48-53c0 20 12 33 32 33 41-3 63-29 60-74-43 2-92-5-92 41" id="ah"/><path fill="#333" d="M24 0v-261h32V0H24" id="ai"/><path fill="#333" d="M177-190C167-65 218 103 67 71c-23-6-38-20-44-43l32-5c15 47 100 32 89-28v-30C133-14 115 1 83 1 29 1 15-40 15-95c0-56 16-97 71-98 29-1 48 16 59 35 1-10 0-23 2-32h30zM94-22c36 0 50-32 50-73 0-42-14-75-50-75-39 0-46 34-46 75s6 73 46 73" id="aj"/><g id="d"><use transform="matrix(0.05,0,0,0.05,0,0)" xlink:href="#T"/><use transform="matrix(0.05,0,0,0.05,12.950000000000001,0)" xlink:href="#ah"/><use transform="matrix(0.05,0,0,0.05,22.950000000000003,0)" xlink:href="#W"/><use transform="matrix(0.05,0,0,0.05,27.950000000000003,0)" xlink:href="#ah"/><use transform="matrix(0.05,0,0,0.05,37.95,0)" xlink:href="#ai"/><use transform="matrix(0.05,0,0,0.05,41.900000000000006,0)" xlink:href="#X"/><use transform="matrix(0.05,0,0,0.05,51.900000000000006,0)" xlink:href="#aj"/></g><g id="e"><use transform="matrix(0.05,0,0,0.05,0,0)" xlink:href="#T"/><use transform="matrix(0.05,0,0,0.05,12.950000000000001,0)" xlink:href="#ah"/><use transform="matrix(0.05,0,0,0.05,22.950000000000003,0)" xlink:href="#W"/><use transform="matrix(0.05,0,0,0.05,27.950000000000003,0)" xlink:href="#ah"/><use transform="matrix(0.05,0,0,0.05,37.95,0)" xlink:href="#ai"/><use transform="matrix(0.05,0,0,0.05,41.900000000000006,0)" xlink:href="#X"/><use transform="matrix(0.05,0,0,0.05,51.900000000000006,0)" xlink:href="#aj"/></g><path fill="#333" d="M233-177c-1 41-23 64-60 70L243 0h-38l-65-103H63V0H30v-248c88 3 205-21 203 71zM63-129c60-2 137 13 137-47 0-61-80-42-137-45v92" id="ak"/><path fill="#333" d="M145-31C134-9 116 4 85 4 32 4 16-35 15-94c0-59 17-99 70-100 32-1 48 14 60 33 0-11-1-24 2-32h30l-1 268h-32zM93-21c41 0 51-33 51-76s-8-73-50-73c-40 0-46 35-46 75s5 74 45 74" id="al"/><g id="f"><use transform="matrix(0.05,0,0,0.05,0,0)" xlink:href="#ak"/><use transform="matrix(0.05,0,0,0.05,12.950000000000001,0)" xlink:href="#Z"/><use transform="matrix(0.05,0,0,0.05,22.950000000000003,0)" xlink:href="#al"/><use transform="matrix(0.05,0,0,0.05,32.95,0)" xlink:href="#U"/><use transform="matrix(0.05,0,0,0.05,42.95,0)" xlink:href="#Z"/><use transform="matrix(0.05,0,0,0.05,52.95,0)" xlink:href="#V"/><use transform="matrix(0.05,0,0,0.05,61.95,0)" xlink:href="#W"/></g><path fill="#333" d="M101-251c82-7 93 87 43 132L82-64C71-53 59-42 53-27h129V0H18c2-99 128-94 128-182 0-28-16-43-45-43s-46 15-49 41l-32-3c6-41 34-60 81-64" id="am"/><g id="g"><use transform="matrix(0.05,0,0,0.05,0,0)" xlink:href="#am"/><use transform="matrix(0.05,0,0,0.05,10,0)" xlink:href="#ac"/><use transform="matrix(0.05,0,0,0.05,15,0)" xlink:href="#ad"/></g><path fill="#333" d="M85-194c31 0 48 13 60 33l-1-100h32l1 261h-30c-2-10 0-23-3-31C134-8 116 4 85 4 32 4 16-35 15-94c0-66 23-100 70-100zm9 24c-40 0-46 34-46 75 0 40 6 74 45 74 42 0 51-32 51-76 0-42-9-74-50-73" id="an"/><g id="h"><use transform="matrix(0.05,0,0,0.05,0,0)" xlink:href="#ae"/><use transform="matrix(0.05,0,0,0.05,10.65,0)" xlink:href="#ah"/><use transform="matrix(0.05,0,0,0.05,20.65,0)" xlink:href="#ai"/><use transform="matrix(0.05,0,0,0.05,24.599999999999998,0)" xlink:href="#af"/><use transform="matrix(0.05,0,0,0.05,28.549999999999997,0)" xlink:href="#an"/><use transform="matrix(0.05,0,0,0.05,38.55,0)" xlink:href="#ah"/><use transform="matrix(0.05,0,0,0.05,48.55,0)" xlink:href="#W"/><use transform="matrix(0.05,0,0,0.05,53.54999999999999,0)" xlink:href="#Z"/></g><path fill="#333" d="M115-194c55 1 70 41 70 98S169 2 115 4C84 4 66-9 55-30l1 105H24l-1-265h31l2 30c10-21 28-34 59-34zm-8 174c40 0 45-34 45-75s-6-73-45-74c-42 0-51 32-51 76 0 43 10 73 51 73" id="ao"/><path fill="#333" d="M96-169c-40 0-48 33-48 73s9 75 48 75c24 0 41-14 43-38l32 2c-6 37-31 61-74 61-59 0-76-41-82-99-10-93 101-131 147-64 4 7 5 14 7 22l-32 3c-4-21-16-35-41-35" id="ap"/><g id="i"><use transform="matrix(0.05,0,0,0.05,0,0)" xlink:href="#ao"/><use transform="matrix(0.05,0,0,0.05,10,0)" xlink:href="#aa"/><use transform="matrix(0.05,0,0,0.05,15.949999999999998,0)" xlink:href="#X"/><use transform="matrix(0.05,0,0,0.05,25.950000000000003,0)" xlink:href="#an"/><use transform="matrix(0.05,0,0,0.05,35.95,0)" xlink:href="#U"/><use transform="matrix(0.05,0,0,0.05,45.95,0)" xlink:href="#ap"/><use transform="matrix(0.05,0,0,0.05,54.95,0)" xlink:href="#W"/></g><g id="j"><use transform="matrix(0.05,0,0,0.05,0,0)" xlink:href="#af"/><use transform="matrix(0.05,0,0,0.05,3.95,0)" xlink:href="#an"/></g><path fill="#333" d="M30-248c87 1 191-15 191 75 0 78-77 80-158 76V0H30v-248zm33 125c57 0 124 11 124-50 0-59-68-47-124-48v98" id="aq"/><g id="k"><use transform="matrix(0.05,0,0,0.05,0,0)" xlink:href="#aq"/><use transform="matrix(0.05,0,0,0.05,12,0)" xlink:href="#aa"/><use transform="matrix(0.05,0,0,0.05,17.95,0)" xlink:href="#X"/><use transform="matrix(0.05,0,0,0.05,27.950000000000003,0)" xlink:href="#an"/><use transform="matrix(0.05,0,0,0.05,37.95,0)" xlink:href="#U"/><use transform="matrix(0.05,0,0,0.05,47.95,0)" xlink:href="#ap"/><use transform="matrix(0.05,0,0,0.05,56.95,0)" xlink:href="#W"/></g><g id="l"><use transform="matrix(0.05,0,0,0.05,0,0)" xlink:href="#aa"/><use transform="matrix(0.05,0,0,0.05,5.95,0)" xlink:href="#Z"/><use transform="matrix(0.05,0,0,0.05,15.949999999999998,0)" xlink:href="#al"/><use transform="matrix(0.05,0,0,0.05,25.950000000000003,0)" xlink:href="#U"/><use transform="matrix(0.05,0,0,0.05,35.95,0)" xlink:href="#Z"/><use transform="matrix(0.05,0,0,0.05,45.95,0)" xlink:href="#V"/><use transform="matrix(0.05,0,0,0.05,54.95,0)" xlink:href="#W"/></g><path fill="#333" d="M205 0l-28-72H64L36 0H1l101-248h38L239 0h-34zm-38-99l-47-123c-12 45-31 82-46 123h93" id="ar"/><g id="m"><use transform="matrix(0.05,0,0,0.05,0,0)" xlink:href="#ar"/><use transform="matrix(0.05,0,0,0.05,12,0)" xlink:href="#an"/><use transform="matrix(0.05,0,0,0.05,22,0)" xlink:href="#an"/></g><g id="n"><use transform="matrix(0.05,0,0,0.05,0,0)" xlink:href="#af"/><use transform="matrix(0.05,0,0,0.05,3.95,0)" xlink:href="#W"/><use transform="matrix(0.05,0,0,0.05,8.95,0)" xlink:href="#Z"/><use transform="matrix(0.05,0,0,0.05,18.95,0)" xlink:href="#Y"/></g><g id="o"><use transform="matrix(0.05,0,0,0.05,0,0)" xlink:href="#W"/><use transform="matrix(0.05,0,0,0.05,5,0)" xlink:href="#X"/></g><g id="p"><use transform="matrix(0.05,0,0,0.05,0,0)" xlink:href="#ap"/><use transform="matrix(0.05,0,0,0.05,9,0)" xlink:href="#ah"/><use transform="matrix(0.05,0,0,0.05,19,0)" xlink:href="#aa"/><use transform="matrix(0.05,0,0,0.05,24.95,0)" xlink:href="#W"/></g><path fill="#333" d="M126-127c33 6 58 20 58 59 0 88-139 92-164 29-3-8-5-16-6-25l32-3c6 27 21 44 54 44 32 0 52-15 52-46 0-38-36-46-79-43v-28c39 1 72-4 72-42 0-27-17-43-46-43-28 0-47 15-49 41l-32-3c6-42 35-63 81-64 48-1 79 21 79 65 0 36-21 52-52 59" id="as"/><g id="q"><use transform="matrix(0.05,0,0,0.05,0,0)" xlink:href="#as"/><use transform="matrix(0.05,0,0,0.05,10,0)" xlink:href="#ac"/><use transform="matrix(0.05,0,0,0.05,15,0)" xlink:href="#ad"/></g><path fill="#333" d="M30-248c118-7 216 8 213 122C240-48 200 0 122 0H30v-248zM63-27c89 8 146-16 146-99s-60-101-146-95v194" id="at"/><path fill="#333" d="M179-190L93 31C79 59 56 82 12 73V49c39 6 53-20 64-50L1-190h34L92-34l54-156h33" id="au"/><g id="r"><use transform="matrix(0.05,0,0,0.05,0,0)" xlink:href="#at"/><use transform="matrix(0.05,0,0,0.05,12.950000000000001,0)" xlink:href="#af"/><use transform="matrix(0.05,0,0,0.05,16.900000000000002,0)" xlink:href="#V"/><use transform="matrix(0.05,0,0,0.05,25.900000000000002,0)" xlink:href="#ao"/><use transform="matrix(0.05,0,0,0.05,35.900000000000006,0)" xlink:href="#ai"/><use transform="matrix(0.05,0,0,0.05,39.85000000000001,0)" xlink:href="#ah"/><use transform="matrix(0.05,0,0,0.05,49.85000000000001,0)" xlink:href="#au"/></g><g id="s"><use transform="matrix(0.05,0,0,0.05,0,0)" xlink:href="#Z"/><use transform="matrix(0.05,0,0,0.05,10,0)" xlink:href="#aa"/><use transform="matrix(0.05,0,0,0.05,15.949999999999998,0)" xlink:href="#aa"/><use transform="matrix(0.05,0,0,0.05,21.9,0)" xlink:href="#X"/><use transform="matrix(0.05,0,0,0.05,31.899999999999995,0)" xlink:href="#aa"/></g><g id="t"><use transform="matrix(0.05,0,0,0.05,0,0)" xlink:href="#W"/><use transform="matrix(0.05,0,0,0.05,5,0)" xlink:href="#X"/></g><g id="u"><use transform="matrix(0.05,0,0,0.05,0,0)" xlink:href="#ap"/><use transform="matrix(0.05,0,0,0.05,9,0)" xlink:href="#U"/><use transform="matrix(0.05,0,0,0.05,19,0)" xlink:href="#V"/><use transform="matrix(0.05,0,0,0.05,28,0)" xlink:href="#W"/><use transform="matrix(0.05,0,0,0.05,33,0)" xlink:href="#X"/><use transform="matrix(0.05,0,0,0.05,43,0)" xlink:href="#Y"/><use transform="matrix(0.05,0,0,0.05,57.95,0)" xlink:href="#Z"/><use transform="matrix(0.05,0,0,0.05,67.95,0)" xlink:href="#aa"/></g><path fill="#333" d="M33 0v-248h34V0H33" id="av"/><path fill="#333" d="M117-194c89-4 53 116 60 194h-32v-121c0-31-8-49-39-48C34-167 62-67 57 0H25l-1-190h30c1 10-1 24 2 32 11-22 29-35 61-36" id="aw"/><path fill="#333" d="M108 0H70L1-190h34L89-25l56-165h34" id="ax"/><g id="v"><use transform="matrix(0.05,0,0,0.05,0,0)" xlink:href="#av"/><use transform="matrix(0.05,0,0,0.05,5,0)" xlink:href="#aw"/><use transform="matrix(0.05,0,0,0.05,15,0)" xlink:href="#ax"/><use transform="matrix(0.05,0,0,0.05,24,0)" xlink:href="#ah"/><use transform="matrix(0.05,0,0,0.05,34,0)" xlink:href="#ai"/><use transform="matrix(0.05,0,0,0.05,37.95,0)" xlink:href="#af"/><use transform="matrix(0.05,0,0,0.05,41.900000000000006,0)" xlink:href="#an"/></g><g id="w"><use transform="matrix(0.05,0,0,0.05,0,0)" xlink:href="#ao"/><use transform="matrix(0.05,0,0,0.05,10,0)" xlink:href="#aa"/><use transform="matrix(0.05,0,0,0.05,15.949999999999998,0)" xlink:href="#X"/><use transform="matrix(0.05,0,0,0.05,25.950000000000003,0)" xlink:href="#an"/><use transform="matrix(0.05,0,0,0.05,35.95,0)" xlink:href="#U"/><use transform="matrix(0.05,0,0,0.05,45.95,0)" xlink:href="#ap"/><use transform="matrix(0.05,0,0,0.05,54.95,0)" xlink:href="#W"/></g><path fill="#333" d="M30 0v-248h187v28H63v79h144v27H63v87h162V0H30" id="ay"/><g id="x"><use transform="matrix(0.05,0,0,0.05,0,0)" xlink:href="#ay"/><use transform="matrix(0.05,0,0,0.05,12,0)" xlink:href="#aa"/><use transform="matrix(0.05,0,0,0.05,17.95,0)" xlink:href="#aa"/><use transform="matrix(0.05,0,0,0.05,23.9,0)" xlink:href="#X"/><use transform="matrix(0.05,0,0,0.05,33.9,0)" xlink:href="#aa"/></g><g id="y"><use transform="matrix(0.05,0,0,0.05,0,0)" xlink:href="#Y"/><use transform="matrix(0.05,0,0,0.05,14.950000000000001,0)" xlink:href="#Z"/><use transform="matrix(0.05,0,0,0.05,24.950000000000003,0)" xlink:href="#V"/><use transform="matrix(0.05,0,0,0.05,33.95,0)" xlink:href="#ah"/><use transform="matrix(0.05,0,0,0.05,43.95,0)" xlink:href="#aj"/><use transform="matrix(0.05,0,0,0.05,53.95,0)" xlink:href="#Z"/></g><g id="z"><use transform="matrix(0.05,0,0,0.05,0,0)" xlink:href="#aq"/><use transform="matrix(0.05,0,0,0.05,12,0)" xlink:href="#aa"/><use transform="matrix(0.05,0,0,0.05,17.95,0)" xlink:href="#X"/><use transform="matrix(0.05,0,0,0.05,27.950000000000003,0)" xlink:href="#an"/><use transform="matrix(0.05,0,0,0.05,37.95,0)" xlink:href="#U"/><use transform="matrix(0.05,0,0,0.05,47.95,0)" xlink:href="#ap"/><use transform="matrix(0.05,0,0,0.05,56.95,0)" xlink:href="#W"/><use transform="matrix(0.05,0,0,0.05,61.95,0)" xlink:href="#V"/></g><g id="A"><use transform="matrix(0.05,0,0,0.05,0,0)" xlink:href="#ae"/><use transform="matrix(0.05,0,0,0.05,10.65,0)" xlink:href="#ah"/><use transform="matrix(0.05,0,0,0.05,20.65,0)" xlink:href="#ai"/><use transform="matrix(0.05,0,0,0.05,24.599999999999998,0)" xlink:href="#af"/><use transform="matrix(0.05,0,0,0.05,28.549999999999997,0)" xlink:href="#an"/></g><path fill="#333" d="M54-142c48-35 137-8 131 61C196 18 31 33 14-55l32-4c7 23 22 37 52 37 35-1 51-22 54-58 4-55-73-65-99-34H22l8-134h141v27H59" id="az"/><g id="B"><use transform="matrix(0.05,0,0,0.05,0,0)" xlink:href="#az"/><use transform="matrix(0.05,0,0,0.05,10,0)" xlink:href="#ac"/><use transform="matrix(0.05,0,0,0.05,15,0)" xlink:href="#ad"/></g><path fill="#333" d="M106-169C34-169 62-67 57 0H25v-261h32l-1 103c12-21 28-36 61-36 89 0 53 116 60 194h-32v-121c2-32-8-49-39-48" id="aA"/><path fill="#333" d="M143 0L79-87 56-68V0H24v-261h32v163l83-92h37l-77 82L181 0h-38" id="aB"/><g id="C"><use transform="matrix(0.05,0,0,0.05,0,0)" xlink:href="#T"/><use transform="matrix(0.05,0,0,0.05,12.950000000000001,0)" xlink:href="#aA"/><use transform="matrix(0.05,0,0,0.05,22.950000000000003,0)" xlink:href="#Z"/><use transform="matrix(0.05,0,0,0.05,32.95,0)" xlink:href="#ap"/><use transform="matrix(0.05,0,0,0.05,41.95,0)" xlink:href="#aB"/></g><g id="D"><use transform="matrix(0.05,0,0,0.05,0,0)" xlink:href="#af"/><use transform="matrix(0.05,0,0,0.05,3.95,0)" xlink:href="#W"/><use transform="matrix(0.05,0,0,0.05,8.95,0)" xlink:href="#Z"/><use transform="matrix(0.05,0,0,0.05,18.95,0)" xlink:href="#Y"/></g><path fill="#333" d="M115-194c53 0 69 39 70 98 0 66-23 100-70 100C84 3 66-7 56-30L54 0H23l1-261h32v101c10-23 28-34 59-34zm-8 174c40 0 45-34 45-75 0-40-5-75-45-74-42 0-51 32-51 76 0 43 10 73 51 73" id="aC"/><g id="E"><use transform="matrix(0.05,0,0,0.05,0,0)" xlink:href="#ah"/><use transform="matrix(0.05,0,0,0.05,10,0)" xlink:href="#ax"/><use transform="matrix(0.05,0,0,0.05,19,0)" xlink:href="#ah"/><use transform="matrix(0.05,0,0,0.05,29,0)" xlink:href="#af"/><use transform="matrix(0.05,0,0,0.05,32.95,0)" xlink:href="#ai"/><use transform="matrix(0.05,0,0,0.05,36.900000000000006,0)" xlink:href="#ah"/><use transform="matrix(0.05,0,0,0.05,46.900000000000006,0)" xlink:href="#aC"/><use transform="matrix(0.05,0,0,0.05,56.900000000000006,0)" xlink:href="#af"/><use transform="matrix(0.05,0,0,0.05,60.85,0)" xlink:href="#ai"/><use transform="matrix(0.05,0,0,0.05,64.80000000000001,0)" xlink:href="#af"/><use transform="matrix(0.05,0,0,0.05,68.75000000000001,0)" xlink:href="#W"/><use transform="matrix(0.05,0,0,0.05,73.75000000000001,0)" xlink:href="#au"/></g><g id="F"><use transform="matrix(0.05,0,0,0.05,0,0)" xlink:href="#aq"/><use transform="matrix(0.05,0,0,0.05,12,0)" xlink:href="#aa"/><use transform="matrix(0.05,0,0,0.05,17.95,0)" xlink:href="#X"/><use transform="matrix(0.05,0,0,0.05,27.950000000000003,0)" xlink:href="#an"/><use transform="matrix(0.05,0,0,0.05,37.95,0)" xlink:href="#U"/><use transform="matrix(0.05,0,0,0.05,47.95,0)" xlink:href="#ap"/><use transform="matrix(0.05,0,0,0.05,56.95,0)" xlink:href="#W"/></g><g id="G"><use transform="matrix(0.05,0,0,0.05,0,0)" xlink:href="#U"/><use transform="matrix(0.05,0,0,0.05,10,0)" xlink:href="#aw"/><use transform="matrix(0.05,0,0,0.05,20,0)" xlink:href="#ah"/><use transform="matrix(0.05,0,0,0.05,30,0)" xlink:href="#ax"/><use transform="matrix(0.05,0,0,0.05,39,0)" xlink:href="#ah"/><use transform="matrix(0.05,0,0,0.05,49,0)" xlink:href="#af"/><use transform="matrix(0.05,0,0,0.05,52.95,0)" xlink:href="#ai"/><use transform="matrix(0.05,0,0,0.05,56.900000000000006,0)" xlink:href="#ah"/><use transform="matrix(0.05,0,0,0.05,66.9,0)" xlink:href="#aC"/><use transform="matrix(0.05,0,0,0.05,76.9,0)" xlink:href="#ai"/><use transform="matrix(0.05,0,0,0.05,80.85000000000001,0)" xlink:href="#Z"/></g><g id="H"><use transform="matrix(0.05,0,0,0.05,0,0)" xlink:href="#aa"/><use transform="matrix(0.05,0,0,0.05,5.95,0)" xlink:href="#Z"/><use transform="matrix(0.05,0,0,0.05,15.949999999999998,0)" xlink:href="#V"/><use transform="matrix(0.05,0,0,0.05,24.95,0)" xlink:href="#ao"/><use transform="matrix(0.05,0,0,0.05,34.95,0)" xlink:href="#X"/><use transform="matrix(0.05,0,0,0.05,44.95,0)" xlink:href="#aw"/><use transform="matrix(0.05,0,0,0.05,54.95,0)" xlink:href="#V"/><use transform="matrix(0.05,0,0,0.05,63.95,0)" xlink:href="#Z"/></g><path fill="#333" d="M110-160c48 1 74 30 74 79 0 53-28 85-80 85-65 0-83-55-86-122-5-90 50-162 133-122 14 7 22 21 27 39l-31 6c-5-40-67-38-82-6-9 19-15 44-15 74 11-20 30-34 60-33zm-7 138c34 0 49-23 49-58s-16-56-50-56c-29 0-50 16-49 49 1 36 15 65 50 65" id="aD"/><g id="I"><use transform="matrix(0.05,0,0,0.05,0,0)" xlink:href="#aD"/><use transform="matrix(0.05,0,0,0.05,10,0)" xlink:href="#ac"/><use transform="matrix(0.05,0,0,0.05,15,0)" xlink:href="#ad"/></g><path fill="#333" d="M232-93c-1 65-40 97-104 97C67 4 28-28 28-90v-158h33c8 89-33 224 67 224 102 0 64-133 71-224h33v155" id="aE"/><g id="J"><use transform="matrix(0.05,0,0,0.05,0,0)" xlink:href="#aE"/><use transform="matrix(0.05,0,0,0.05,12.950000000000001,0)" xlink:href="#ao"/><use transform="matrix(0.05,0,0,0.05,22.950000000000003,0)" xlink:href="#an"/><use transform="matrix(0.05,0,0,0.05,32.95,0)" xlink:href="#ah"/><use transform="matrix(0.05,0,0,0.05,42.95,0)" xlink:href="#W"/><use transform="matrix(0.05,0,0,0.05,47.95,0)" xlink:href="#Z"/></g><g id="K"><use transform="matrix(0.05,0,0,0.05,0,0)" xlink:href="#V"/><use transform="matrix(0.05,0,0,0.05,9,0)" xlink:href="#aA"/><use transform="matrix(0.05,0,0,0.05,19,0)" xlink:href="#X"/><use transform="matrix(0.05,0,0,0.05,29,0)" xlink:href="#ao"/><use transform="matrix(0.05,0,0,0.05,39,0)" xlink:href="#ao"/><use transform="matrix(0.05,0,0,0.05,49,0)" xlink:href="#af"/><use transform="matrix(0.05,0,0,0.05,52.95,0)" xlink:href="#aw"/><use transform="matrix(0.05,0,0,0.05,62.95,0)" xlink:href="#aj"/></g><g id="L"><use transform="matrix(0.05,0,0,0.05,0,0)" xlink:href="#ap"/><use transform="matrix(0.05,0,0,0.05,9,0)" xlink:href="#ah"/><use transform="matrix(0.05,0,0,0.05,19,0)" xlink:href="#aa"/><use transform="matrix(0.05,0,0,0.05,24.95,0)" xlink:href="#W"/></g><g id="M"><use transform="matrix(0.05,0,0,0.05,0,0)" xlink:href="#ah"/><use transform="matrix(0.05,0,0,0.05,10,0)" xlink:href="#ax"/><use transform="matrix(0.05,0,0,0.05,19,0)" xlink:href="#ah"/><use transform="matrix(0.05,0,0,0.05,29,0)" xlink:href="#af"/><use transform="matrix(0.05,0,0,0.05,32.95,0)" xlink:href="#ai"/><use transform="matrix(0.05,0,0,0.05,36.900000000000006,0)" xlink:href="#ah"/><use transform="matrix(0.05,0,0,0.05,46.900000000000006,0)" xlink:href="#aC"/><use transform="matrix(0.05,0,0,0.05,56.900000000000006,0)" xlink:href="#ai"/><use transform="matrix(0.05,0,0,0.05,60.85,0)" xlink:href="#Z"/></g><path fill="#333" d="M185-189c-5-48-123-54-124 2 14 75 158 14 163 119 3 78-121 87-175 55-17-10-28-26-33-46l33-7c5 56 141 63 141-1 0-78-155-14-162-118-5-82 145-84 179-34 5 7 8 16 11 25" id="aF"/><g id="N"><use transform="matrix(0.05,0,0,0.05,0,0)" xlink:href="#aF"/><use transform="matrix(0.05,0,0,0.05,12,0)" xlink:href="#aA"/><use transform="matrix(0.05,0,0,0.05,22,0)" xlink:href="#X"/><use transform="matrix(0.05,0,0,0.05,32,0)" xlink:href="#ao"/><use transform="matrix(0.05,0,0,0.05,42,0)" xlink:href="#ao"/><use transform="matrix(0.05,0,0,0.05,52,0)" xlink:href="#af"/><use transform="matrix(0.05,0,0,0.05,55.95,0)" xlink:href="#aw"/><use transform="matrix(0.05,0,0,0.05,65.95,0)" xlink:href="#aj"/></g><g id="O"><use transform="matrix(0.05,0,0,0.05,0,0)" xlink:href="#an"/><use transform="matrix(0.05,0,0,0.05,10,0)" xlink:href="#ah"/><use transform="matrix(0.05,0,0,0.05,20,0)" xlink:href="#W"/><use transform="matrix(0.05,0,0,0.05,25,0)" xlink:href="#ah"/></g><path fill="#333" d="M155-56V0h-30v-56H8v-25l114-167h33v167h35v25h-35zm-30-156c-27 46-58 90-88 131h88v-131" id="aG"/><g id="P"><use transform="matrix(0.05,0,0,0.05,0,0)" xlink:href="#aG"/><use transform="matrix(0.05,0,0,0.05,10,0)" xlink:href="#ac"/><use transform="matrix(0.05,0,0,0.05,15,0)" xlink:href="#ad"/></g><g id="Q"><use transform="matrix(0.05,0,0,0.05,0,0)" xlink:href="#at"/><use transform="matrix(0.05,0,0,0.05,12.950000000000001,0)" xlink:href="#af"/><use transform="matrix(0.05,0,0,0.05,16.900000000000002,0)" xlink:href="#V"/><use transform="matrix(0.05,0,0,0.05,25.900000000000002,0)" xlink:href="#ao"/><use transform="matrix(0.05,0,0,0.05,35.900000000000006,0)" xlink:href="#ai"/><use transform="matrix(0.05,0,0,0.05,39.85000000000001,0)" xlink:href="#ah"/><use transform="matrix(0.05,0,0,0.05,49.85000000000001,0)" xlink:href="#au"/></g><path fill="#333" d="M0 4l72-265h28L28 4H0" id="aH"/><g id="R"><use transform="matrix(0.05,0,0,0.05,0,0)" xlink:href="#ap"/><use transform="matrix(0.05,0,0,0.05,9,0)" xlink:href="#ah"/><use transform="matrix(0.05,0,0,0.05,19,0)" xlink:href="#W"/><use transform="matrix(0.05,0,0,0.05,24,0)" xlink:href="#ah"/><use transform="matrix(0.05,0,0,0.05,34,0)" xlink:href="#ai"/><use transform="matrix(0.05,0,0,0.05,37.95,0)" xlink:href="#X"/><use transform="matrix(0.05,0,0,0.05,47.95,0)" xlink:href="#aj"/><use transform="matrix(0.05,0,0,0.05,57.95,0)" xlink:href="#aH"/><use transform="matrix(0.05,0,0,0.05,62.95,0)" xlink:href="#ao"/><use transform="matrix(0.05,0,0,0.05,72.95,0)" xlink:href="#aa"/><use transform="matrix(0.05,0,0,0.05,78.9,0)" xlink:href="#X"/><use transform="matrix(0.05,0,0,0.05,88.9,0)" xlink:href="#an"/><use transform="matrix(0.05,0,0,0.05,98.9,0)" xlink:href="#U"/><use transform="matrix(0.05,0,0,0.05,108.9,0)" xlink:href="#ap"/><use transform="matrix(0.05,0,0,0.05,117.9,0)" xlink:href="#W"/></g><g id="S"><use transform="matrix(0.05,0,0,0.05,0,0)" xlink:href="#T"/><use transform="matrix(0.05,0,0,0.05,12.950000000000001,0)" xlink:href="#ah"/><use transform="matrix(0.05,0,0,0.05,22.950000000000003,0)" xlink:href="#W"/><use transform="matrix(0.05,0,0,0.05,27.950000000000003,0)" xlink:href="#ah"/><use transform="matrix(0.05,0,0,0.05,37.95,0)" xlink:href="#ai"/><use transform="matrix(0.05,0,0,0.05,41.900000000000006,0)" xlink:href="#X"/><use transform="matrix(0.05,0,0,0.05,51.900000000000006,0)" xlink:href="#aj"/><use transform="matrix(0.05,0,0,0.05,61.900000000000006,0)" xlink:href="#aH"/><use transform="matrix(0.05,0,0,0.05,66.9,0)" xlink:href="#ao"/><use transform="matrix(0.05,0,0,0.05,76.9,0)" xlink:href="#aa"/><use transform="matrix(0.05,0,0,0.05,82.85000000000001,0)" xlink:href="#X"/><use transform="matrix(0.05,0,0,0.05,92.85000000000001,0)" xlink:href="#an"/><use transform="matrix(0.05,0,0,0.05,102.85000000000001,0)" xlink:href="#U"/><use transform="matrix(0.05,0,0,0.05,112.85000000000001,0)" xlink:href="#ap"/><use transform="matrix(0.05,0,0,0.05,121.85000000000001,0)" xlink:href="#W"/></g></defs></g></svg>